<svg width="65" height="65" viewBox="0 0 65 65" fill="none" xmlns="http://www.w3.org/2000/svg">
<path d="M35.0839 31.46L43.0925 23.4514L17.2252 8.91311C15.5108 7.98686 13.9047 7.85686 12.4964 8.86978L35.0839 31.46ZM44.4575 40.8362L52.7829 36.1535C54.4079 35.2435 55.2989 33.9544 55.2989 32.5244C55.2989 31.0971 54.4079 29.8052 52.7856 28.8952L45.2483 24.6621L36.7631 33.1446L44.4575 40.8362ZM11.1043 10.8387C10.931 11.3723 10.8335 11.9681 10.8335 12.6208V52.4469C10.8335 53.4787 11.061 54.3671 11.4727 55.0739L33.402 33.1419L11.1043 10.8387ZM35.0839 34.821L13.2764 56.6312C13.6935 56.791 14.1431 56.875 14.617 56.875C15.462 56.875 16.3422 56.6258 17.2387 56.1275L42.3043 42.0523L35.0839 34.821Z" fill="black"/>
</svg>
