<svg width="97" height="19" viewBox="0 0 97 19" fill="none" xmlns="http://www.w3.org/2000/svg">
<circle cx="9.5" cy="9.5" r="9.5" fill="white"/>
<path fill-rule="evenodd" clip-rule="evenodd" d="M3 9.53629C3 12.7679 5.34704 15.4551 8.41667 16V11.3054H6.79167V9.5H8.41667V8.05538C8.41667 6.43038 9.46371 5.52796 10.9446 5.52796C11.4137 5.52796 11.9196 5.6 12.3887 5.67204V7.33333H11.5583C10.7637 7.33333 10.5833 7.73038 10.5833 8.23629V9.5H12.3167L12.028 11.3054H10.5833V16C13.653 15.4551 16 12.7684 16 9.53629C16 5.94125 13.075 3 9.5 3C5.925 3 3 5.94125 3 9.53629Z" fill="#FAD234"/>
<circle cx="35.5" cy="9.5" r="9.5" fill="white"/>
<path d="M35.4983 6.16487C33.6527 6.16487 32.1632 7.65438 32.1632 9.5C32.1632 11.3456 33.6527 12.8351 35.4983 12.8351C37.3438 12.8351 38.8333 11.3456 38.8333 9.5C38.8333 7.65438 37.3438 6.16487 35.4983 6.16487ZM35.4983 11.6676C34.3047 11.6676 33.3307 10.6936 33.3307 9.5C33.3307 8.30644 34.3047 7.33241 35.4983 7.33241C36.6918 7.33241 37.6658 8.30644 37.6658 9.5C37.6658 10.6936 36.6918 11.6676 35.4983 11.6676ZM38.9699 5.251C38.539 5.251 38.191 5.59899 38.191 6.02991C38.191 6.46082 38.539 6.80881 38.9699 6.80881C39.4008 6.80881 39.7488 6.46245 39.7488 6.02991C39.7489 5.92758 39.7289 5.82624 39.6898 5.73168C39.6507 5.63712 39.5933 5.55121 39.521 5.47885C39.4486 5.4065 39.3627 5.34913 39.2681 5.31003C39.1736 5.27094 39.0722 5.25088 38.9699 5.251ZM41.9993 9.5C41.9993 8.60239 42.0074 7.71292 41.957 6.81694C41.9066 5.77623 41.6692 4.85261 40.9082 4.0916C40.1456 3.32896 39.2236 3.09317 38.1829 3.04276C37.2853 2.99235 36.3958 3.00048 35.4999 3.00048C34.6023 3.00048 33.7128 2.99235 32.8169 3.04276C31.7762 3.09317 30.8526 3.33058 30.0916 4.0916C29.3289 4.85424 29.0932 5.77623 29.0428 6.81694C28.9924 7.71454 29.0005 8.60402 29.0005 9.5C29.0005 10.396 28.9924 11.2871 29.0428 12.1831C29.0932 13.2238 29.3306 14.1474 30.0916 14.9084C30.8542 15.671 31.7762 15.9068 32.8169 15.9572C33.7145 16.0076 34.6039 15.9995 35.4999 15.9995C36.3975 15.9995 37.2869 16.0076 38.1829 15.9572C39.2236 15.9068 40.1472 15.6694 40.9082 14.9084C41.6708 14.1458 41.9066 13.2238 41.957 12.1831C42.009 11.2871 41.9993 10.3976 41.9993 9.5ZM40.5683 13.3343C40.4496 13.6303 40.3065 13.8514 40.0773 14.0791C39.848 14.3084 39.6285 14.4515 39.3325 14.5702C38.4772 14.91 36.4463 14.8336 35.4983 14.8336C34.5503 14.8336 32.5177 14.91 31.6624 14.5718C31.3664 14.4531 31.1453 14.31 30.9176 14.0807C30.6883 13.8514 30.5452 13.6319 30.4265 13.336C30.0883 12.479 30.1647 10.448 30.1647 9.5C30.1647 8.55198 30.0883 6.51936 30.4265 5.66403C30.5452 5.36808 30.6883 5.14693 30.9176 4.91928C31.1469 4.69163 31.3664 4.5469 31.6624 4.4282C32.5177 4.08997 34.5503 4.1664 35.4983 4.1664C36.4463 4.1664 38.4788 4.08997 39.3341 4.4282C39.6301 4.5469 39.8512 4.69 40.0789 4.91928C40.3082 5.14856 40.4513 5.36808 40.57 5.66403C40.9082 6.51936 40.8318 8.55198 40.8318 9.5C40.8318 10.448 40.9082 12.479 40.5683 13.3343Z" fill="#FAD234"/>
<circle cx="61.5" cy="9.5" r="9.5" fill="white"/>
<path d="M66.7812 5.03125H56.2188C55.994 5.03125 55.8125 5.21279 55.8125 5.4375V13.5625C55.8125 13.7872 55.994 13.9688 56.2188 13.9688H66.7812C67.006 13.9688 67.1875 13.7872 67.1875 13.5625V5.4375C67.1875 5.21279 67.006 5.03125 66.7812 5.03125ZM66.2734 6.43789V13.0547H56.7266V6.43789L56.3762 6.16494L56.8751 5.52383L57.4185 5.94658H65.5828L66.1262 5.52383L66.6251 6.16494L66.2734 6.43789ZM65.5828 5.94531L61.5 9.11914L57.4172 5.94531L56.8738 5.52256L56.3749 6.16367L56.7253 6.43662L61.062 9.8085C61.1867 9.90539 61.3402 9.95798 61.4981 9.95798C61.656 9.95798 61.8095 9.90539 61.9342 9.8085L66.2734 6.43789L66.6238 6.16494L66.1249 5.52383L65.5828 5.94531Z" fill="#FAD234"/>
<circle cx="87.5" cy="9.5" r="9.5" fill="white"/>
<g clip-path="url(#clip0_2_1409)">
<path d="M86.7168 6.37998L84.8843 4.26477C84.6731 4.02102 84.2858 4.0221 84.0404 4.26802L82.5335 5.77764C82.085 6.22668 81.9566 6.89348 82.2161 7.4281C83.7661 10.6375 86.3544 13.2294 89.5616 14.7839C90.0957 15.0434 90.762 14.915 91.2105 14.466L92.7315 12.9423C92.9779 12.6958 92.9785 12.3063 92.7325 12.0951L90.6092 10.2724C90.3871 10.0817 90.0421 10.1066 89.8195 10.3298L89.0806 11.0697C89.0428 11.1094 88.993 11.1355 88.9389 11.1441C88.8848 11.1527 88.8293 11.1433 88.7811 11.1174C87.5734 10.4219 86.5716 9.41885 85.8778 8.21027C85.8518 8.16192 85.8424 8.10639 85.851 8.05218C85.8596 7.99798 85.8857 7.9481 85.9254 7.91018L86.6621 7.17298C86.8853 6.94873 86.9096 6.60206 86.7168 6.37943V6.37998Z" stroke="#FAD234" stroke-width="1.41667" stroke-linecap="round" stroke-linejoin="round"/>
</g>
<defs>
<clipPath id="clip0_2_1409">
<rect width="13" height="13" fill="white" transform="translate(81 3)"/>
</clipPath>
</defs>
</svg>
