<svg width="65" height="65" viewBox="0 0 65 65" fill="none" xmlns="http://www.w3.org/2000/svg">
<path d="M61.9531 40.625C61.9531 41.4331 61.6321 42.2081 61.0607 42.7795C60.4893 43.3509 59.7143 43.6719 58.9062 43.6719H50.9514L55.4354 51.2611C55.6446 51.6058 55.7833 51.9885 55.8435 52.3871C55.9037 52.7857 55.8842 53.1923 55.7862 53.5834C55.6881 53.9744 55.5134 54.3421 55.2722 54.6651C55.031 54.9882 54.7281 55.2601 54.381 55.4652C54.0339 55.6704 53.6496 55.8046 53.2503 55.8601C52.851 55.9156 52.4446 55.8913 52.0548 55.7886C51.6649 55.6859 51.2993 55.5069 50.9792 55.2619C50.659 55.0169 50.3907 54.7108 50.1896 54.3613L35.7754 29.9609C35.3872 29.2665 35.2861 28.4478 35.4936 27.6798C35.7011 26.9117 36.2007 26.2553 36.8857 25.8508C37.5708 25.4463 38.3869 25.3257 39.1596 25.5149C39.9323 25.7041 40.6004 26.188 41.0211 26.8633L47.3484 37.5781H58.9062C59.7143 37.5781 60.4893 37.8991 61.0607 38.4705C61.6321 39.0419 61.9531 39.8169 61.9531 40.625ZM33.8076 37.5781H24.7279L41.2166 9.67638C41.4258 9.33175 41.5645 8.94904 41.6247 8.55042C41.685 8.15179 41.6655 7.74518 41.5674 7.35414C41.4693 6.9631 41.2946 6.59541 41.0534 6.27238C40.8122 5.94934 40.5093 5.67739 40.1623 5.47227C39.8152 5.26716 39.4309 5.13296 39.0316 5.07745C38.6322 5.02194 38.2259 5.04623 37.836 5.14891C37.4462 5.25159 37.0806 5.43061 36.7604 5.67561C36.4403 5.92061 36.1719 6.22671 35.9709 6.57618L32.5 12.4414L29.0291 6.57618C28.8281 6.22671 28.5597 5.92061 28.2396 5.67561C27.9194 5.43061 27.5538 5.25159 27.164 5.14891C26.7741 5.04623 26.3678 5.02194 25.9684 5.07745C25.5691 5.13296 25.1848 5.26716 24.8377 5.47227C24.4907 5.67739 24.1878 5.94934 23.9466 6.27238C23.7054 6.59541 23.5307 6.9631 23.4326 7.35414C23.3345 7.74518 23.315 8.15179 23.3753 8.55042C23.4355 8.94904 23.5742 9.33175 23.7834 9.67638L28.9605 18.4387L17.6516 37.5781H6.09375C5.28567 37.5781 4.51068 37.8991 3.93928 38.4705C3.36788 39.0419 3.04688 39.8169 3.04688 40.625C3.04688 41.4331 3.36788 42.2081 3.93928 42.7795C4.51068 43.3509 5.28567 43.6719 6.09375 43.6719H33.8076C34.6157 43.6719 35.3907 43.3509 35.9621 42.7795C36.5335 42.2081 36.8545 41.4331 36.8545 40.625C36.8545 39.8169 36.5335 39.0419 35.9621 38.4705C35.3907 37.8991 34.6157 37.5781 33.8076 37.5781ZM14.9373 48.1584C14.2419 47.7477 13.4119 47.6298 12.6297 47.8307C11.8474 48.0316 11.177 48.5349 10.7656 49.2299L9.56465 51.2611C9.35545 51.6058 9.21672 51.9885 9.1565 52.3871C9.09628 52.7857 9.11577 53.1923 9.21384 53.5834C9.31191 53.9744 9.48661 54.3421 9.72781 54.6651C9.96901 54.9882 10.2719 55.2601 10.619 55.4652C10.9661 55.6704 11.3504 55.8046 11.7497 55.8601C12.149 55.9156 12.5554 55.8913 12.9452 55.7886C13.3351 55.6859 13.7007 55.5069 14.0208 55.2619C14.341 55.0169 14.6093 54.7108 14.8104 54.3613L16.0113 52.3301C16.4219 51.6344 16.5394 50.8042 16.338 50.0219C16.1366 49.2396 15.6328 48.5693 14.9373 48.1584Z" fill="black"/>
</svg>
