<svg width="352" height="476" viewBox="0 0 352 476" fill="none" xmlns="http://www.w3.org/2000/svg">
<g clip-path="url(#clip0_2_1275)">
<path d="M290.516 458.106C292.581 458.235 293.723 455.668 292.16 454.172L292.005 453.554C292.025 453.505 292.046 453.455 292.066 453.406C294.156 448.424 301.236 448.458 303.308 453.448C305.146 457.876 307.487 462.311 308.064 466.993C308.322 469.06 308.206 471.166 307.747 473.194C312.055 463.783 314.322 453.507 314.322 443.173C314.322 440.577 314.18 437.98 313.89 435.39C313.651 433.272 313.321 431.166 312.895 429.08C310.589 417.803 305.596 407.062 298.395 398.09C294.933 396.198 292.046 393.24 290.302 389.694C289.675 388.415 289.184 387.039 288.952 385.638C289.346 385.689 290.437 379.689 290.14 379.321C290.689 378.488 291.672 378.073 292.272 377.26C295.254 373.217 299.363 373.923 301.508 379.418C306.09 381.73 306.135 385.566 303.323 389.255C301.534 391.601 301.288 394.777 299.719 397.289C299.88 397.496 300.048 397.696 300.21 397.903C303.171 401.701 305.732 405.783 307.891 410.072C307.281 405.305 308.181 399.563 309.717 395.862C311.465 391.645 314.742 388.093 317.628 384.447C321.094 380.068 328.201 381.979 328.812 387.53C328.818 387.584 328.823 387.638 328.829 387.691C328.4 387.933 327.98 388.19 327.57 388.461C325.231 390.009 326.039 393.635 328.811 394.063L328.874 394.073C328.719 395.616 328.454 397.147 328.067 398.652C331.769 412.968 323.777 418.182 312.365 418.416C312.113 418.545 311.868 418.675 311.616 418.797C312.772 422.053 313.696 425.392 314.38 428.776C314.994 431.767 315.42 434.789 315.659 437.825C315.956 441.655 315.931 445.505 315.608 449.328L315.627 449.193C316.447 444.982 318.734 441.048 322.054 438.323C326.999 434.26 333.986 432.764 339.322 429.498C341.89 427.926 345.181 429.958 344.733 432.935L344.711 433.078C343.917 433.401 343.142 433.776 342.393 434.195C341.964 434.437 341.544 434.694 341.134 434.965C338.794 436.513 339.603 440.139 342.375 440.567L342.438 440.577C342.483 440.583 342.522 440.59 342.567 440.596C341.204 443.832 339.305 446.835 336.928 449.425C334.614 461.922 324.672 463.108 314.038 459.469H314.032C312.869 464.533 311.17 469.48 308.987 474.195H290.967C290.902 473.995 290.844 473.788 290.786 473.588C292.453 473.691 294.132 473.594 295.773 473.291C294.436 471.65 293.099 469.997 291.762 468.356C291.729 468.324 291.703 468.292 291.678 468.259C290.999 467.42 290.315 466.587 289.637 465.747L289.636 465.746C289.594 463.168 289.903 460.599 290.516 458.106Z" fill="#F2F2F2"/>
<path d="M101.891 443.981C98.0115 444.224 95.8674 439.404 98.8025 436.595L99.0945 435.434C99.0561 435.341 99.0175 435.248 98.9785 435.155C95.0552 425.8 81.7586 425.865 77.8687 435.234C74.416 443.549 70.0202 451.879 68.9379 460.671C68.4527 464.553 68.671 468.507 69.5322 472.315C61.4422 454.643 57.1849 435.346 57.1849 415.94C57.1849 411.064 57.4518 406.188 57.9976 401.325C58.4464 397.346 59.0649 393.392 59.8655 389.475C64.1954 368.298 73.5712 348.127 87.0949 331.28C93.596 327.726 99.0176 322.171 102.292 315.513C103.469 313.111 104.391 310.528 104.827 307.896C104.087 307.993 102.038 296.725 102.596 296.033C101.565 294.469 99.7191 293.691 98.5931 292.164C92.9927 284.571 85.2767 285.897 81.2487 296.215C72.6438 300.558 72.5605 307.761 77.8404 314.688C81.1995 319.095 81.6611 325.058 84.6084 329.776C84.3051 330.164 83.9898 330.54 83.6866 330.928C78.1261 338.06 73.3169 345.726 69.2626 353.779C70.4084 344.829 68.7168 334.046 65.8328 327.096C62.55 319.176 56.3967 312.506 50.9781 305.66C44.4693 297.436 31.1226 301.025 29.976 311.45C29.9649 311.551 29.9541 311.652 29.9434 311.752C30.7483 312.207 31.5368 312.689 32.307 313.198C36.7003 316.104 35.1819 322.914 29.9764 323.718L29.8586 323.736C30.1497 326.635 30.647 329.509 31.3746 332.335C24.4232 359.218 39.4309 369.01 60.86 369.45C61.333 369.692 61.794 369.935 62.267 370.165C60.0959 376.278 58.3614 382.549 57.0758 388.904C55.9236 394.52 55.123 400.196 54.6743 405.897C54.1163 413.089 54.1649 420.318 54.7714 427.499L54.735 427.244C53.1947 419.336 48.901 411.949 42.6667 406.831C33.3794 399.202 20.2584 396.393 10.2391 390.26C5.41613 387.308 -0.764156 391.123 0.0775838 396.715L0.118564 396.982C1.6104 397.589 3.06583 398.292 4.4728 399.081C5.27765 399.535 6.06614 400.017 6.83636 400.526C11.2296 403.432 9.7113 410.242 4.50579 411.046L4.38782 411.064C4.30295 411.076 4.23014 411.088 4.14536 411.101C6.70456 417.177 10.2704 422.817 14.7338 427.681C19.0804 451.149 37.749 453.375 57.7187 446.541H57.7308C59.914 456.05 63.1039 465.341 67.2036 474.195H101.043C101.165 473.819 101.274 473.431 101.383 473.055C98.2535 473.249 95.1 473.067 92.0192 472.497C94.5299 469.416 97.0406 466.311 99.5513 463.231C99.6119 463.17 99.6605 463.109 99.709 463.049C100.982 461.472 102.268 459.907 103.542 458.331L103.542 458.329C103.622 453.488 103.042 448.664 101.892 443.982L101.891 443.981Z" fill="#F2F2F2"/>
<path d="M225.045 143.572C225.045 143.342 225.035 143.122 225.025 142.892C225.025 142.702 225.015 142.512 225.005 142.322H213.875C213.615 142.592 213.355 142.842 213.085 143.062C212.965 143.172 212.835 143.272 212.715 143.362C212.625 143.442 212.535 143.502 212.445 143.562C212.195 143.732 211.955 143.882 211.705 144.002C211.615 144.052 211.525 144.092 211.435 144.122C211.215 144.222 210.995 144.282 210.775 144.322H225.055C225.055 144.072 225.055 143.822 225.045 143.572ZM202.875 143.822C202.525 143.802 202.185 143.772 201.835 143.752C200.725 143.672 199.595 143.602 198.465 143.522C197.895 143.482 197.335 143.452 196.775 143.412C196.715 143.412 196.665 143.392 196.605 143.372C196.575 143.352 196.545 143.342 196.515 143.312C196.455 143.282 196.385 143.222 196.325 143.152C196.265 143.092 196.205 143.012 196.145 142.932C196.095 142.862 196.035 142.772 195.985 142.692C195.915 142.572 195.855 142.452 195.785 142.322H191.715C191.655 142.432 191.595 142.522 191.545 142.602L191.525 142.622C191.475 142.692 191.425 142.762 191.375 142.812C191.255 142.942 191.145 143.012 191.035 143.002C190.825 142.982 190.615 142.962 190.415 142.912C190.335 142.902 190.265 142.882 190.185 142.862C190.115 142.842 190.035 142.822 189.965 142.802C189.805 142.752 189.645 142.692 189.495 142.632C189.455 142.612 189.415 142.602 189.375 142.582C189.205 142.502 189.035 142.422 188.865 142.322H176.245C175.755 142.972 175.305 143.642 174.875 144.322H209.605C207.575 144.142 205.275 143.982 202.875 143.822ZM225.045 143.572C225.045 143.342 225.035 143.122 225.025 142.892C225.025 142.702 225.015 142.512 225.005 142.322H213.875C213.615 142.592 213.355 142.842 213.085 143.062C212.965 143.172 212.835 143.272 212.715 143.362C212.625 143.442 212.535 143.502 212.445 143.562C212.195 143.732 211.955 143.882 211.705 144.002C211.615 144.052 211.525 144.092 211.435 144.122C211.215 144.222 210.995 144.282 210.775 144.322H225.055C225.055 144.072 225.055 143.822 225.045 143.572ZM202.875 143.822C202.525 143.802 202.185 143.772 201.835 143.752C200.725 143.672 199.595 143.602 198.465 143.522C197.895 143.482 197.335 143.452 196.775 143.412C196.715 143.412 196.665 143.392 196.605 143.372C196.575 143.352 196.545 143.342 196.515 143.312C196.455 143.282 196.385 143.222 196.325 143.152C196.265 143.092 196.205 143.012 196.145 142.932C196.095 142.862 196.035 142.772 195.985 142.692C195.915 142.572 195.855 142.452 195.785 142.322H191.715C191.655 142.432 191.595 142.522 191.545 142.602L191.525 142.622C191.475 142.692 191.425 142.762 191.375 142.812C191.255 142.942 191.145 143.012 191.035 143.002C190.825 142.982 190.615 142.962 190.415 142.912C190.335 142.902 190.265 142.882 190.185 142.862C190.115 142.842 190.035 142.822 189.965 142.802C189.805 142.752 189.645 142.692 189.495 142.632C189.455 142.612 189.415 142.602 189.375 142.582C189.205 142.502 189.035 142.422 188.865 142.322H176.245C175.755 142.972 175.305 143.642 174.875 144.322H209.605C207.575 144.142 205.275 143.982 202.875 143.822ZM332.325 142.322H46.3647C35.8748 142.322 27.3447 150.852 27.3447 161.342V456.302C27.3447 466.792 35.8748 475.322 46.3647 475.322H332.325C342.815 475.322 351.345 466.792 351.345 456.302V161.342C351.345 150.852 342.815 142.322 332.325 142.322ZM349.345 456.302C349.345 465.692 341.715 473.322 332.325 473.322H46.3647C36.9747 473.322 29.3447 465.692 29.3447 456.302V161.342C29.3447 151.952 36.9747 144.322 46.3647 144.322H332.325C341.715 144.322 349.345 151.952 349.345 161.342V456.302ZM202.875 143.822C202.525 143.802 202.185 143.772 201.835 143.752C200.725 143.672 199.595 143.602 198.465 143.522C197.895 143.482 197.335 143.452 196.775 143.412C196.715 143.412 196.665 143.392 196.605 143.372C196.575 143.352 196.545 143.342 196.515 143.312C196.455 143.282 196.385 143.222 196.325 143.152C196.265 143.092 196.205 143.012 196.145 142.932C196.095 142.862 196.035 142.772 195.985 142.692C195.915 142.572 195.855 142.452 195.785 142.322H191.715C191.655 142.432 191.595 142.522 191.545 142.602L191.525 142.622C191.475 142.692 191.425 142.762 191.375 142.812C191.255 142.942 191.145 143.012 191.035 143.002C190.825 142.982 190.615 142.962 190.415 142.912C190.335 142.902 190.265 142.882 190.185 142.862C190.115 142.842 190.035 142.822 189.965 142.802C189.805 142.752 189.645 142.692 189.495 142.632C189.455 142.612 189.415 142.602 189.375 142.582C189.205 142.502 189.035 142.422 188.865 142.322H176.245C175.755 142.972 175.305 143.642 174.875 144.322H209.605C207.575 144.142 205.275 143.982 202.875 143.822ZM225.045 143.572C225.045 143.342 225.035 143.122 225.025 142.892C225.025 142.702 225.015 142.512 225.005 142.322H213.875C213.615 142.592 213.355 142.842 213.085 143.062C212.965 143.172 212.835 143.272 212.715 143.362C212.625 143.442 212.535 143.502 212.445 143.562C212.195 143.732 211.955 143.882 211.705 144.002C211.615 144.052 211.525 144.092 211.435 144.122C211.215 144.222 210.995 144.282 210.775 144.322H225.055C225.055 144.072 225.055 143.822 225.045 143.572ZM202.875 143.822C202.525 143.802 202.185 143.772 201.835 143.752C200.725 143.672 199.595 143.602 198.465 143.522C197.895 143.482 197.335 143.452 196.775 143.412C196.715 143.412 196.665 143.392 196.605 143.372C196.575 143.352 196.545 143.342 196.515 143.312C196.455 143.282 196.385 143.222 196.325 143.152C196.265 143.092 196.205 143.012 196.145 142.932C196.095 142.862 196.035 142.772 195.985 142.692C195.915 142.572 195.855 142.452 195.785 142.322H191.715C191.655 142.432 191.595 142.522 191.545 142.602L191.525 142.622C191.475 142.692 191.425 142.762 191.375 142.812C191.255 142.942 191.145 143.012 191.035 143.002C190.825 142.982 190.615 142.962 190.415 142.912C190.335 142.902 190.265 142.882 190.185 142.862C190.115 142.842 190.035 142.822 189.965 142.802C189.805 142.752 189.645 142.692 189.495 142.632C189.455 142.612 189.415 142.602 189.375 142.582C189.205 142.502 189.035 142.422 188.865 142.322H176.245C175.755 142.972 175.305 143.642 174.875 144.322H209.605C207.575 144.142 205.275 143.982 202.875 143.822ZM225.045 143.572C225.045 143.342 225.035 143.122 225.025 142.892C225.025 142.702 225.015 142.512 225.005 142.322H213.875C213.615 142.592 213.355 142.842 213.085 143.062C212.965 143.172 212.835 143.272 212.715 143.362C212.625 143.442 212.535 143.502 212.445 143.562C212.195 143.732 211.955 143.882 211.705 144.002C211.615 144.052 211.525 144.092 211.435 144.122C211.215 144.222 210.995 144.282 210.775 144.322H225.055C225.055 144.072 225.055 143.822 225.045 143.572Z" fill="#3F3D56"/>
<path d="M266.984 144.485C259.005 147.412 255.012 117.352 253.02 116.681C251.169 116.057 248.881 146.55 247.036 145.949C202.37 131.395 183.791 96.0453 145.271 106.022C134.507 71.9513 137.598 34.9675 149.26 24.0718C167.443 -0.103168 202.64 0.730161 226.882 4.89605C245.84 8.15376 258.605 26.6463 254.1 45.3464C253.797 46.6062 252.586 47.7942 252.979 48.9496C254.66 53.8868 268.444 121.524 266.984 144.485Z" fill="#2F2E41"/>
<path d="M205.117 92.9983C228.254 92.9983 247.01 74.2423 247.01 51.1056C247.01 27.9689 228.254 9.21293 205.117 9.21293C181.981 9.21293 163.225 27.9689 163.225 51.1056C163.225 74.2423 181.981 92.9983 205.117 92.9983Z" fill="#FFB6B6"/>
<path d="M243.24 292.487H125.965C135.795 270.553 141.838 249.663 132.391 233.047L243.24 226.621C237.701 249.052 237.024 271.066 243.24 292.487Z" fill="#FFB6B6"/>
<path d="M285.685 475.322H196.395L195.425 473.322L181.185 444.092L179.775 473.322L179.675 475.322H91.7147C91.6747 474.652 91.6247 473.982 91.5846 473.322C86.1647 389.672 105.655 332.972 117.085 307.602L117.095 307.592C121.585 297.612 124.845 292.482 124.845 292.482L125.975 292.472H125.985L148.815 292.072H148.825L169.045 291.732L184.325 291.482L190.455 291.372H190.465L194.305 291.312L213.395 290.982L230.445 290.692L242.685 290.492H243.025L244.845 298.342V298.352L244.915 298.702V298.712L245.225 300.002L245.235 300.042L245.855 302.752V302.772L245.895 302.922V302.932L246.045 303.582L246.055 303.612L247.495 309.842L249.825 319.972L252.895 333.222L256.765 350.042L258.725 358.512L261.415 370.182L285.215 473.322L285.685 475.322Z" fill="#2F2E41"/>
<path d="M225.635 97.846L178.505 96L159.876 124.043L150.074 126.432C135.379 130.014 125.3 145.227 126.47 162.055L125.67 287.614L123 307L245.934 264.708L269 136.209L236.134 122.955L225.635 97.846Z" fill="#FAD234"/>
<path d="M235.739 367.205C237.077 362.493 239.368 358.473 242.097 355.606L252.009 309.91L273.615 315.263L261.234 361.04C262.048 364.914 261.885 369.537 260.547 374.25C257.49 385.015 249.458 392.165 242.607 390.22C235.757 388.274 232.682 377.97 235.739 367.205Z" fill="#FFB6B6"/>
<path d="M238.728 120.446C238.728 120.446 278.62 118.414 281.525 144.868C284.43 171.321 293.723 234.208 293.723 234.208L272.182 335.902L241.464 331.633L255.039 202.188L238.728 120.446Z" fill="#FAD234"/>
<path d="M264.826 95.3863C261.653 110.304 252.122 119.793 237.212 123.001C223.828 125.881 213.155 110.634 209.597 95.3863C206.131 80.5341 222.263 70.7949 237.212 67.7716C252.29 64.7221 266.521 87.4238 264.826 95.3863Z" fill="#3F3D56"/>
<path d="M218.915 88.4403C219.851 88.4403 220.609 87.6818 220.609 86.7461C220.609 85.8105 219.851 85.052 218.915 85.052C217.979 85.052 217.221 85.8105 217.221 86.7461C217.221 87.6818 217.979 88.4403 218.915 88.4403Z" fill="white"/>
<path d="M258.05 88.4403C258.986 88.4403 259.744 87.6818 259.744 86.7461C259.744 85.8105 258.986 85.052 258.05 85.052C257.114 85.052 256.356 85.8105 256.356 86.7461C256.356 87.6818 257.114 88.4403 258.05 88.4403Z" fill="white"/>
<path d="M233.484 91.4898C234.42 91.4898 235.179 90.7313 235.179 89.7956C235.179 88.86 234.42 88.1015 233.484 88.1015C232.549 88.1015 231.79 88.86 231.79 89.7956C231.79 90.7313 232.549 91.4898 233.484 91.4898Z" fill="white"/>
<path d="M246.021 81.8331C246.957 81.8331 247.715 81.0746 247.715 80.1389C247.715 79.2033 246.957 78.4448 246.021 78.4448C245.086 78.4448 244.327 79.2033 244.327 80.1389C244.327 81.0746 245.086 81.8331 246.021 81.8331Z" fill="white"/>
<path d="M231.282 75.3953C232.976 75.9035 230.524 77.0894 229.588 77.0894C228.652 77.0894 227.894 76.3309 227.894 75.3953C227.894 74.4596 228.652 73.7011 229.588 73.7011C230.524 73.7011 229.588 74.887 231.282 75.3953Z" fill="white"/>
<path d="M241.955 97.9276C243.649 98.4358 241.197 99.6217 240.261 99.6217C239.325 99.6217 238.567 98.8632 238.567 97.9276C238.567 96.9919 239.325 96.2334 240.261 96.2334C241.197 96.2334 240.261 97.4193 241.955 97.9276Z" fill="white"/>
<path d="M241.278 75.0565C242.972 75.5647 240.519 76.7506 239.584 76.7506C238.648 76.7506 237.889 75.9921 237.889 75.0565C237.889 74.1208 238.648 73.3623 239.584 73.3623C240.519 73.3623 239.584 74.5482 241.278 75.0565Z" fill="white"/>
<path d="M244.496 111.989C246.191 112.497 243.738 113.683 242.802 113.683C241.867 113.683 241.108 112.925 241.108 111.989C241.108 111.053 241.867 110.295 242.802 110.295C243.738 110.295 242.802 111.481 244.496 111.989Z" fill="white"/>
<path d="M223.658 107.245C225.353 107.754 222.9 108.94 221.964 108.94C221.029 108.94 220.27 108.181 220.27 107.245C220.27 106.31 221.029 105.551 221.964 105.551C222.9 105.551 221.964 106.737 223.658 107.245Z" fill="#FAD234"/>
<path d="M253.984 97.5887C255.678 98.097 253.225 99.2829 252.29 99.2829C251.354 99.2829 250.595 98.5244 250.595 97.5887C250.595 96.6531 251.354 95.8946 252.29 95.8946C253.225 95.8946 252.29 97.0805 253.984 97.5887Z" fill="white"/>
<path d="M221.625 97.5887C223.32 98.097 220.867 99.2829 219.931 99.2829C218.996 99.2829 218.237 98.5244 218.237 97.5887C218.237 96.6531 218.996 95.8946 219.931 95.8946C220.867 95.8946 219.931 97.0805 221.625 97.5887Z" fill="#FAD234"/>
<path d="M233.146 117.919C234.84 118.427 232.387 119.613 231.451 119.613C230.516 119.613 229.757 118.854 229.757 117.919C229.757 116.983 230.516 116.224 231.451 116.224C232.387 116.224 231.451 117.41 233.146 117.919Z" fill="white"/>
<path d="M223.153 122.2C220.036 125.98 216.325 128.743 212.676 130.275L185.266 168.157L167.621 154.587L197.326 117.62C198.134 113.746 200.138 109.575 203.254 105.796C210.372 97.1608 220.598 93.8332 226.093 98.3632C231.587 102.893 230.271 113.566 223.153 122.2Z" fill="#FFB6B6"/>
<path d="M181.22 148.876C185.755 126.489 170.996 94.086 170.672 77.3218C170.384 62.406 173.954 63.5551 185.672 54.3218L191.672 39.3218C196.18 37.6121 200.531 43.0153 202.74 46.4982C203.868 48.2764 206.417 48.3014 207.596 46.557C208.169 45.7104 208.722 45.0939 209.107 45.121C210.716 45.2342 211.878 51.5852 213.522 51.6955C220.437 52.1592 236.105 51.8261 241.672 52.3218C247.74 52.8621 246.362 37.97 247.01 39.1363C252.069 48.2417 249.345 36.3218 242.808 31.326L252.535 32.3218C258.342 50.8483 263.953 69.2431 258.672 80.3218L248.99 53.1005C248.99 25.5568 235.041 -6.7462 195.143 1.23337C167.989 -1.48211 143.355 17.1559 138.505 44.0103C136.145 57.0715 132.478 70.2373 129.991 81.7072C127.774 91.9279 130.887 105.808 141.281 106.963L148.345 123.322C148.345 132.918 161.281 140.929 170.499 139.589C175.235 138.901 180.738 147.27 181.345 149.322L181.22 148.876Z" fill="#2F2E41"/>
<path d="M294.515 263.772C293.675 260.232 291.865 257.142 289.375 254.772L289.365 254.762C286.015 251.532 281.425 249.602 276.425 249.602H192.565C179.305 249.602 168.475 259.872 167.915 273.002C167.765 276.242 167.825 279.462 168.045 282.672C168.235 285.722 168.595 288.742 169.045 291.732C169.085 291.982 169.115 292.232 169.165 292.482V292.492C171.285 305.712 175.655 318.362 180.025 329.632C188.295 350.962 209.215 365.302 232.105 365.302C233.555 365.302 234.985 365.242 236.405 365.132H236.415C244.355 364.532 251.935 362.222 258.725 358.512C260.035 357.812 261.295 357.062 262.525 356.242C262.525 356.242 262.535 356.242 262.535 356.232C271.635 350.312 279.005 341.742 283.505 331.302C292.095 311.362 300.135 287.732 294.515 263.772Z" fill="white"/>
<path d="M242.883 322.804C239.709 337.721 230.178 347.21 215.268 350.419C201.884 353.299 191.211 338.051 187.653 322.804C184.188 307.952 200.319 298.212 215.268 295.189C230.346 292.14 244.577 314.841 242.883 322.804Z" fill="#3F3D56"/>
<path d="M196.971 315.858C197.907 315.858 198.665 315.099 198.665 314.164C198.665 313.228 197.907 312.469 196.971 312.469C196.035 312.469 195.277 313.228 195.277 314.164C195.277 315.099 196.035 315.858 196.971 315.858Z" fill="#FAD234"/>
<path d="M236.106 315.858C237.042 315.858 237.8 315.099 237.8 314.164C237.8 313.228 237.042 312.469 236.106 312.469C235.17 312.469 234.412 313.228 234.412 314.164C234.412 315.099 235.17 315.858 236.106 315.858Z" fill="#FAD234"/>
<path d="M211.541 318.907C212.476 318.907 213.235 318.149 213.235 317.213C213.235 316.277 212.476 315.519 211.541 315.519C210.605 315.519 209.846 316.277 209.846 317.213C209.846 318.149 210.605 318.907 211.541 318.907Z" fill="#FAD234"/>
<path d="M224.077 309.251C225.013 309.251 225.772 308.492 225.772 307.556C225.772 306.621 225.013 305.862 224.077 305.862C223.142 305.862 222.383 306.621 222.383 307.556C222.383 308.492 223.142 309.251 224.077 309.251Z" fill="#FAD234"/>
<path d="M209.338 302.813C211.032 303.321 208.58 304.507 207.644 304.507C206.708 304.507 205.95 303.748 205.95 302.813C205.95 301.877 206.708 301.119 207.644 301.119C208.58 301.119 207.644 302.305 209.338 302.813Z" fill="#FAD234"/>
<path d="M220.011 325.345C221.706 325.853 219.253 327.039 218.317 327.039C217.382 327.039 216.623 326.281 216.623 325.345C216.623 324.409 217.382 323.651 218.317 323.651C219.253 323.651 218.317 324.837 220.011 325.345Z" fill="#FAD234"/>
<path d="M219.334 302.474C221.028 302.982 218.575 304.168 217.64 304.168C216.704 304.168 215.946 303.41 215.946 302.474C215.946 301.538 216.704 300.78 217.64 300.78C218.575 300.78 217.64 301.966 219.334 302.474Z" fill="#FAD234"/>
<path d="M222.553 339.407C224.247 339.915 221.794 341.101 220.858 341.101C219.923 341.101 219.164 340.342 219.164 339.407C219.164 338.471 219.923 337.712 220.858 337.712C221.794 337.712 220.858 338.898 222.553 339.407Z" fill="#FAD234"/>
<path d="M201.714 334.663C203.409 335.171 200.956 336.357 200.02 336.357C199.085 336.357 198.326 335.599 198.326 334.663C198.326 333.727 199.085 332.969 200.02 332.969C200.956 332.969 200.02 334.155 201.714 334.663Z" fill="#FAD234"/>
<path d="M232.04 325.006C233.734 325.515 231.281 326.7 230.346 326.7C229.41 326.7 228.652 325.942 228.652 325.006C228.652 324.071 229.41 323.312 230.346 323.312C231.281 323.312 230.346 324.498 232.04 325.006Z" fill="#FAD234"/>
<path d="M199.682 325.006C201.376 325.515 198.923 326.7 197.987 326.7C197.052 326.7 196.293 325.942 196.293 325.006C196.293 324.071 197.052 323.312 197.987 323.312C198.923 323.312 197.987 324.498 199.682 325.006Z" fill="#FAD234"/>
<path d="M211.202 345.336C212.896 345.844 210.443 347.03 209.508 347.03C208.572 347.03 207.813 346.272 207.813 345.336C207.813 344.4 208.572 343.642 209.508 343.642C210.443 343.642 209.508 344.828 211.202 345.336Z" fill="#FAD234"/>
<path d="M266.821 284.901C263.647 299.818 254.116 309.307 239.207 312.516C225.823 315.396 215.15 300.148 211.592 284.901C208.126 270.049 224.258 260.309 239.207 257.286C254.285 254.237 268.515 276.938 266.821 284.901Z" fill="#3F3D56"/>
<path d="M220.91 277.955C221.845 277.955 222.604 277.196 222.604 276.261C222.604 275.325 221.845 274.567 220.91 274.567C219.974 274.567 219.216 275.325 219.216 276.261C219.216 277.196 219.974 277.955 220.91 277.955Z" fill="#FAD234"/>
<path d="M260.045 277.955C260.98 277.955 261.739 277.196 261.739 276.261C261.739 275.325 260.98 274.567 260.045 274.567C259.109 274.567 258.351 275.325 258.351 276.261C258.351 277.196 259.109 277.955 260.045 277.955Z" fill="#FAD234"/>
<path d="M235.479 281.004C236.415 281.004 237.173 280.246 237.173 279.31C237.173 278.375 236.415 277.616 235.479 277.616C234.544 277.616 233.785 278.375 233.785 279.31C233.785 280.246 234.544 281.004 235.479 281.004Z" fill="#FAD234"/>
<path d="M248.016 271.348C248.952 271.348 249.71 270.589 249.71 269.654C249.71 268.718 248.952 267.959 248.016 267.959C247.081 267.959 246.322 268.718 246.322 269.654C246.322 270.589 247.081 271.348 248.016 271.348Z" fill="#FAD234"/>
<path d="M233.277 264.91C234.971 265.418 232.518 266.604 231.583 266.604C230.647 266.604 229.889 265.846 229.889 264.91C229.889 263.974 230.647 263.216 231.583 263.216C232.518 263.216 231.583 264.402 233.277 264.91Z" fill="#FAD234"/>
<path d="M243.95 287.442C245.644 287.95 243.192 289.136 242.256 289.136C241.32 289.136 240.562 288.378 240.562 287.442C240.562 286.507 241.32 285.748 242.256 285.748C243.192 285.748 242.256 286.934 243.95 287.442Z" fill="#FAD234"/>
<path d="M243.273 264.571C244.967 265.079 242.514 266.265 241.578 266.265C240.643 266.265 239.884 265.507 239.884 264.571C239.884 263.635 240.643 262.877 241.578 262.877C242.514 262.877 241.578 264.063 243.273 264.571Z" fill="#FAD234"/>
<path d="M246.491 301.504C248.186 302.012 245.733 303.198 244.797 303.198C243.862 303.198 243.103 302.439 243.103 301.504C243.103 300.568 243.862 299.81 244.797 299.81C245.733 299.81 244.797 300.995 246.491 301.504Z" fill="#FAD234"/>
<path d="M225.653 296.76C227.347 297.268 224.895 298.454 223.959 298.454C223.023 298.454 222.265 297.696 222.265 296.76C222.265 295.824 223.023 295.066 223.959 295.066C224.895 295.066 223.959 296.252 225.653 296.76Z" fill="#FAD234"/>
<path d="M255.979 287.103C257.673 287.612 255.22 288.797 254.285 288.797C253.349 288.797 252.59 288.039 252.59 287.103C252.59 286.168 253.349 285.409 254.285 285.409C255.22 285.409 254.284 286.595 255.979 287.103Z" fill="#FAD234"/>
<path d="M223.62 287.103C225.314 287.612 222.862 288.797 221.926 288.797C220.99 288.797 220.232 288.039 220.232 287.103C220.232 286.168 220.99 285.409 221.926 285.409C222.862 285.409 221.926 286.595 223.62 287.103Z" fill="#FAD234"/>
<path d="M235.141 307.433C236.835 307.941 234.382 309.127 233.446 309.127C232.511 309.127 231.752 308.369 231.752 307.433C231.752 306.498 232.511 305.739 233.446 305.739C234.382 305.739 233.446 306.925 235.141 307.433Z" fill="#FAD234"/>
<path d="M234.903 278.916C231.729 293.834 222.198 303.323 207.288 306.531C193.904 309.411 183.231 294.164 179.673 278.916C176.208 264.064 192.34 254.325 207.288 251.302C222.366 248.252 236.597 270.954 234.903 278.916Z" fill="#3F3D56"/>
<path d="M188.991 271.97C189.927 271.97 190.685 271.212 190.685 270.276C190.685 269.34 189.927 268.582 188.991 268.582C188.056 268.582 187.297 269.34 187.297 270.276C187.297 271.212 188.056 271.97 188.991 271.97Z" fill="#FAD234"/>
<path d="M228.126 271.97C229.062 271.97 229.82 271.212 229.82 270.276C229.82 269.34 229.062 268.582 228.126 268.582C227.191 268.582 226.432 269.34 226.432 270.276C226.432 271.212 227.191 271.97 228.126 271.97Z" fill="#FAD234"/>
<path d="M203.561 275.02C204.497 275.02 205.255 274.261 205.255 273.326C205.255 272.39 204.497 271.631 203.561 271.631C202.625 271.631 201.867 272.39 201.867 273.326C201.867 274.261 202.625 275.02 203.561 275.02Z" fill="#FAD234"/>
<path d="M216.098 265.363C217.033 265.363 217.792 264.605 217.792 263.669C217.792 262.733 217.033 261.975 216.098 261.975C215.162 261.975 214.404 262.733 214.404 263.669C214.404 264.605 215.162 265.363 216.098 265.363Z" fill="#FAD234"/>
<path d="M201.359 258.925C203.053 259.433 200.6 260.619 199.664 260.619C198.729 260.619 197.97 259.861 197.97 258.925C197.97 257.99 198.729 257.231 199.664 257.231C200.6 257.231 199.664 258.417 201.359 258.925Z" fill="#FAD234"/>
<path d="M212.032 281.458C213.726 281.966 211.273 283.152 210.338 283.152C209.402 283.152 208.644 282.393 208.644 281.458C208.644 280.522 209.402 279.763 210.338 279.763C211.273 279.763 210.338 280.949 212.032 281.458Z" fill="#FAD234"/>
<path d="M211.354 258.586C213.048 259.095 210.596 260.281 209.66 260.281C208.724 260.281 207.966 259.522 207.966 258.586C207.966 257.651 208.724 256.892 209.66 256.892C210.596 256.892 209.66 258.078 211.354 258.586Z" fill="#FAD234"/>
<path d="M214.573 295.519C216.267 296.027 213.814 297.213 212.879 297.213C211.943 297.213 211.185 296.455 211.185 295.519C211.185 294.583 211.943 293.825 212.879 293.825C213.814 293.825 212.879 295.011 214.573 295.519Z" fill="#FAD234"/>
<path d="M193.735 290.775C195.429 291.284 192.976 292.47 192.041 292.47C191.105 292.47 190.346 291.711 190.346 290.775C190.346 289.84 191.105 289.081 192.041 289.081C192.976 289.081 192.041 290.267 193.735 290.775Z" fill="#FAD234"/>
<path d="M224.06 281.119C225.754 281.627 223.302 282.813 222.366 282.813C221.43 282.813 220.672 282.054 220.672 281.119C220.672 280.183 221.43 279.424 222.366 279.424C223.302 279.424 222.366 280.61 224.06 281.119Z" fill="#FAD234"/>
<path d="M191.702 281.119C193.396 281.627 190.943 282.813 190.008 282.813C189.072 282.813 188.313 282.054 188.313 281.119C188.313 280.183 189.072 279.424 190.008 279.424C190.943 279.424 190.008 280.61 191.702 281.119Z" fill="#FAD234"/>
<path d="M203.222 301.449C204.916 301.957 202.464 303.143 201.528 303.143C200.592 303.143 199.834 302.384 199.834 301.449C199.834 300.513 200.592 299.754 201.528 299.754C202.464 299.754 201.528 300.94 203.222 301.449Z" fill="#FAD234"/>
<path d="M258.842 241.013C255.668 255.931 246.137 265.42 231.227 268.628C217.843 271.508 207.17 256.261 203.612 241.013C200.147 226.161 216.278 216.422 231.227 213.399C246.305 210.349 260.536 233.051 258.842 241.013Z" fill="#3F3D56"/>
<path d="M212.93 234.067C213.866 234.067 214.624 233.309 214.624 232.373C214.624 231.438 213.866 230.679 212.93 230.679C211.994 230.679 211.236 231.438 211.236 232.373C211.236 233.309 211.994 234.067 212.93 234.067Z" fill="white"/>
<path d="M252.065 234.067C253.001 234.067 253.759 233.309 253.759 232.373C253.759 231.438 253.001 230.679 252.065 230.679C251.129 230.679 250.371 231.438 250.371 232.373C250.371 233.309 251.129 234.067 252.065 234.067Z" fill="white"/>
<path d="M227.5 237.117C228.435 237.117 229.194 236.358 229.194 235.423C229.194 234.487 228.435 233.728 227.5 233.728C226.564 233.728 225.805 234.487 225.805 235.423C225.805 236.358 226.564 237.117 227.5 237.117Z" fill="white"/>
<path d="M240.036 227.46C240.972 227.46 241.731 226.702 241.731 225.766C241.731 224.83 240.972 224.072 240.036 224.072C239.101 224.072 238.342 224.83 238.342 225.766C238.342 226.702 239.101 227.46 240.036 227.46Z" fill="white"/>
<path d="M225.297 221.022C226.991 221.531 224.539 222.716 223.603 222.716C222.667 222.716 221.909 221.958 221.909 221.022C221.909 220.087 222.667 219.328 223.603 219.328C224.539 219.328 223.603 220.514 225.297 221.022Z" fill="white"/>
<path d="M235.97 243.555C237.665 244.063 235.212 245.249 234.276 245.249C233.341 245.249 232.582 244.49 232.582 243.555C232.582 242.619 233.341 241.86 234.276 241.86C235.212 241.86 234.276 243.046 235.97 243.555Z" fill="white"/>
<path d="M235.293 220.683C236.987 221.192 234.534 222.378 233.599 222.378C232.663 222.378 231.905 221.619 231.905 220.683C231.905 219.748 232.663 218.989 233.599 218.989C234.534 218.989 233.599 220.175 235.293 220.683Z" fill="white"/>
<path d="M238.512 257.616C240.206 258.124 237.753 259.31 236.817 259.31C235.882 259.31 235.123 258.552 235.123 257.616C235.123 256.68 235.882 255.922 236.817 255.922C237.753 255.922 236.817 257.108 238.512 257.616Z" fill="#FAD234"/>
<path d="M217.673 252.872C219.368 253.381 216.915 254.567 215.979 254.567C215.044 254.567 214.285 253.808 214.285 252.872C214.285 251.937 215.044 251.178 215.979 251.178C216.915 251.178 215.979 252.364 217.673 252.872Z" fill="#FAD234"/>
<path d="M247.999 243.216C249.693 243.724 247.24 244.91 246.305 244.91C245.369 244.91 244.611 244.151 244.611 243.216C244.611 242.28 245.369 241.522 246.305 241.522C247.24 241.522 246.305 242.708 247.999 243.216Z" fill="white"/>
<path d="M215.641 243.216C217.335 243.724 214.882 244.91 213.946 244.91C213.011 244.91 212.252 244.151 212.252 243.216C212.252 242.28 213.011 241.522 213.946 241.522C214.882 241.522 213.946 242.708 215.641 243.216Z" fill="white"/>
<path d="M227.161 263.546C228.855 264.054 226.402 265.24 225.467 265.24C224.531 265.24 223.772 264.481 223.772 263.546C223.772 262.61 224.531 261.852 225.467 261.852C226.402 261.852 225.467 263.037 227.161 263.546Z" fill="#FAD234"/>
<path d="M282.78 322.804C279.606 337.721 270.075 347.21 255.166 350.419C241.782 353.299 231.109 338.051 227.551 322.804C224.085 307.952 240.217 298.212 255.166 295.189C270.244 292.14 284.474 314.841 282.78 322.804Z" fill="#3F3D56"/>
<path d="M236.869 315.858C237.804 315.858 238.563 315.099 238.563 314.164C238.563 313.228 237.804 312.469 236.869 312.469C235.933 312.469 235.175 313.228 235.175 314.164C235.175 315.099 235.933 315.858 236.869 315.858Z" fill="#FAD234"/>
<path d="M276.004 315.858C276.939 315.858 277.698 315.099 277.698 314.164C277.698 313.228 276.939 312.469 276.004 312.469C275.068 312.469 274.31 313.228 274.31 314.164C274.31 315.099 275.068 315.858 276.004 315.858Z" fill="#FAD234"/>
<path d="M251.438 318.907C252.374 318.907 253.132 318.149 253.132 317.213C253.132 316.277 252.374 315.519 251.438 315.519C250.503 315.519 249.744 316.277 249.744 317.213C249.744 318.149 250.503 318.907 251.438 318.907Z" fill="#FAD234"/>
<path d="M263.975 309.251C264.911 309.251 265.669 308.492 265.669 307.556C265.669 306.621 264.911 305.862 263.975 305.862C263.039 305.862 262.281 306.621 262.281 307.556C262.281 308.492 263.039 309.251 263.975 309.251Z" fill="#FAD234"/>
<path d="M249.236 302.813C250.93 303.321 248.477 304.507 247.542 304.507C246.606 304.507 245.848 303.748 245.848 302.813C245.848 301.877 246.606 301.119 247.542 301.119C248.477 301.119 247.542 302.305 249.236 302.813Z" fill="#FAD234"/>
<path d="M259.909 325.345C261.603 325.853 259.151 327.039 258.215 327.039C257.279 327.039 256.521 326.281 256.521 325.345C256.521 324.409 257.279 323.651 258.215 323.651C259.151 323.651 258.215 324.837 259.909 325.345Z" fill="#FAD234"/>
<path d="M259.232 302.474C260.926 302.982 258.473 304.168 257.537 304.168C256.602 304.168 255.843 303.41 255.843 302.474C255.843 301.538 256.602 300.78 257.537 300.78C258.473 300.78 257.537 301.966 259.232 302.474Z" fill="#FAD234"/>
<path d="M262.45 339.407C264.144 339.915 261.692 341.101 260.756 341.101C259.821 341.101 259.062 340.342 259.062 339.407C259.062 338.471 259.821 337.712 260.756 337.712C261.692 337.712 260.756 338.898 262.45 339.407Z" fill="#FAD234"/>
<path d="M241.612 334.663C243.306 335.171 240.854 336.357 239.918 336.357C238.982 336.357 238.224 335.599 238.224 334.663C238.224 333.727 238.982 332.969 239.918 332.969C240.854 332.969 239.918 334.155 241.612 334.663Z" fill="#FAD234"/>
<path d="M271.938 325.006C273.632 325.515 271.179 326.7 270.243 326.7C269.308 326.7 268.549 325.942 268.549 325.006C268.549 324.071 269.308 323.312 270.243 323.312C271.179 323.312 270.243 324.498 271.938 325.006Z" fill="#FAD234"/>
<path d="M239.579 325.006C241.273 325.515 238.821 326.7 237.885 326.7C236.949 326.7 236.191 325.942 236.191 325.006C236.191 324.071 236.949 323.312 237.885 323.312C238.821 323.312 237.885 324.498 239.579 325.006Z" fill="#FAD234"/>
<path d="M251.1 345.336C252.794 345.844 250.341 347.03 249.405 347.03C248.47 347.03 247.711 346.272 247.711 345.336C247.711 344.4 248.47 343.642 249.405 343.642C250.341 343.642 249.405 344.828 251.1 345.336Z" fill="#FAD234"/>
<path opacity="0.7" d="M294.515 263.772C293.675 260.232 291.865 257.142 289.375 254.772L289.365 254.762C286.015 251.532 281.425 249.602 276.425 249.602C245.225 266.19 217.682 264.095 192.565 249.602C179.305 249.602 168.475 259.872 167.915 273.002C167.765 276.242 167.825 279.462 168.045 282.672C168.235 285.722 168.595 288.742 169.045 291.732C169.085 291.982 169.115 292.232 169.165 292.482V292.492C171.285 305.712 175.655 318.362 180.025 329.632C188.295 350.962 209.215 365.302 232.105 365.302C233.555 365.302 234.985 365.242 236.405 365.132H236.415C244.355 364.532 251.935 362.222 258.725 358.512C260.035 357.812 261.295 357.062 262.525 356.242C262.525 356.242 262.535 356.242 262.535 356.232C271.635 350.312 279.005 341.742 283.505 331.302C292.095 311.362 300.135 287.732 294.515 263.772Z" fill="#E6E6E6"/>
<path d="M149.26 126.911C149.26 126.911 120.232 110.952 110.808 126.911C102.766 140.528 95.7771 209.329 93.8985 229.234C93.5687 232.728 94.4122 236.221 96.2963 239.182C101.876 247.95 114.261 249.023 121.266 241.345L211.102 142.871L183.173 128.906L135.296 178.779L149.26 126.911Z" fill="#FAD234"/>
</g>
<defs>
<clipPath id="clip0_2_1275">
<rect width="351.345" height="475.322" fill="white"/>
</clipPath>
</defs>
</svg>
