<svg width="32" height="32" viewBox="0 0 32 32" fill="none" xmlns="http://www.w3.org/2000/svg">
<path fill-rule="evenodd" clip-rule="evenodd" d="M12.667 16.7383C16.3398 16.7383 19.2838 13.7562 19.2838 10.0358C19.2838 6.31555 16.3398 3.33337 12.667 3.33337C8.99423 3.33337 6.05015 6.31555 6.05015 10.0358C6.05015 13.7562 8.99423 16.7383 12.667 16.7383ZM12.667 20.0203C7.27262 20.0203 2.66699 20.8828 2.66699 24.3286C2.66699 27.7731 7.24459 28.6667 12.667 28.6667C18.0601 28.6667 22.667 27.8042 22.667 24.3583C22.667 20.9126 18.0894 20.0203 12.667 20.0203ZM26.5309 12.7839H28.135C28.7953 12.7839 29.3337 13.3298 29.3337 13.9994C29.3337 14.6688 28.7953 15.2148 28.135 15.2148H26.5309V16.7846C26.5309 17.4542 25.9939 18 25.3323 18C24.6721 18 24.1337 17.4542 24.1337 16.7846V15.2148H22.5323C21.8706 15.2148 21.3337 14.6688 21.3337 13.9994C21.3337 13.3298 21.8706 12.7839 22.5323 12.7839H24.1337V11.2155C24.1337 10.546 24.6721 10 25.3323 10C25.9939 10 26.5309 10.546 26.5309 11.2155V12.7839Z" fill="white"/>
</svg>
