<svg width="104" height="32" viewBox="0 0 104 32" fill="none" xmlns="http://www.w3.org/2000/svg">
<path d="M54.8375 8.04048C54.8375 9.19374 53.9083 10.1224 52.755 10.1224C51.6018 10.1224 50.6731 9.19374 50.6731 8.04048C50.6731 6.88723 51.5701 5.9586 52.755 5.9586C53.9409 5.9906 54.8375 6.91955 54.8375 8.04048ZM46.2527 12.2369V12.7495C46.2527 12.7495 45.2601 11.4676 43.1459 11.4676C39.6548 11.4676 36.9316 14.1264 36.9316 17.8099C36.9316 21.4617 39.6228 24.1522 43.1459 24.1522C45.2921 24.1522 46.2527 22.8389 46.2527 22.8389V23.3832C46.2527 23.6395 46.4454 23.8312 46.7014 23.8312H49.2956V11.787H46.7014C46.4454 11.7879 46.2527 12.0126 46.2527 12.2369ZM46.2527 19.9561C45.7728 20.661 44.8115 21.2697 43.6586 21.2697C41.6087 21.2697 40.0388 19.9884 40.0388 17.8099C40.0388 15.6317 41.6087 14.3504 43.6586 14.3504C44.7798 14.3504 45.8048 14.9911 46.2527 15.6637V19.9561ZM51.2178 11.7879H54.2926V23.8322H51.2178V11.7879ZM97.1512 11.4673C95.037 11.4673 94.0438 12.7492 94.0438 12.7492V5.9906H90.969V23.8322H93.5638C93.8201 23.8322 94.0118 23.6078 94.0118 23.3835V22.8392C94.0118 22.8392 95.005 24.1525 97.1186 24.1525C100.61 24.1525 103.333 21.4626 103.333 17.8108C103.333 14.1591 100.61 11.4673 97.1512 11.4673ZM96.6386 21.2373C95.453 21.2373 94.5244 20.6293 94.0438 19.9241V15.6317C94.5244 14.9911 95.5493 14.3184 96.6386 14.3184C98.6885 14.3184 100.258 15.5997 100.258 17.7779C100.258 19.9561 98.6888 21.2373 96.6386 21.2373ZM89.3677 16.6893V23.8642H86.2923V17.0413C86.2923 15.0557 85.6516 14.2544 83.923 14.2544C82.9944 14.2544 82.0331 14.7351 81.4235 15.44V23.8325H78.3494V11.7882H80.7829C81.0392 11.7882 81.2316 12.0126 81.2316 12.2369V12.7495C82.1285 11.8202 83.3134 11.4676 84.4984 11.4676C85.8439 11.4676 86.9652 11.8526 87.8621 12.6212C88.9508 13.5181 89.3677 14.6711 89.3677 16.6893ZM70.8849 11.4673C68.7713 11.4673 67.7781 12.7492 67.7781 12.7492V5.9906H64.7033V23.8322H67.2974C67.5538 23.8322 67.7461 23.6078 67.7461 23.3835V22.8392C67.7461 22.8392 68.7393 24.1525 70.8529 24.1525C74.3447 24.1525 77.0672 21.4626 77.0672 17.8108C77.0992 14.1588 74.3767 11.4673 70.8849 11.4673ZM70.3723 21.2373C69.1873 21.2373 68.2587 20.6293 67.7781 19.9241V15.6317C68.2587 14.9911 69.2836 14.3184 70.3723 14.3184C72.4228 14.3184 73.992 15.5997 73.992 17.7779C73.992 19.9561 72.4228 21.2373 70.3723 21.2373ZM62.0444 11.4673C62.973 11.4673 63.4537 11.6279 63.4537 11.6279V14.4784C63.4537 14.4784 60.8912 13.6135 59.2899 15.4397V23.8638H56.2145V11.7879H58.8093C59.0656 11.7879 59.2573 12.0122 59.2573 12.2366V12.7492C59.8345 12.0762 61.0838 11.4673 62.0444 11.4673ZM30.1094 22.7429C29.9494 22.3586 29.7891 21.9423 29.6291 21.5897C29.3724 21.0133 29.1161 20.4684 28.8925 19.9561L28.8605 19.9241C26.6499 15.1191 24.2801 10.2507 21.7812 5.4463L21.6852 5.25365C21.4224 4.75525 21.1663 4.25336 20.9169 3.74809C20.5963 3.17114 20.2763 2.56315 19.7637 1.9862C18.7387 0.704946 17.2652 0 15.6959 0C14.094 0 12.6528 0.70495 11.5962 1.92189C11.1155 2.49819 10.7629 3.10683 10.4429 3.68377C10.1929 4.18872 9.9368 4.69061 9.6746 5.18934L9.57829 5.38197C7.11178 10.1864 4.70958 15.0551 2.49939 19.8598L2.46707 19.9234C2.24308 20.4367 1.98644 20.981 1.73013 21.557C1.57013 21.9096 1.41013 22.294 1.25014 22.7103C0.833504 23.8952 0.70518 25.0165 0.865817 26.17C1.21813 28.5726 2.81938 30.5898 5.02989 31.4874C5.86284 31.84 6.72778 32 7.6244 32C7.88072 32 8.20072 31.968 8.45735 31.9357C9.51461 31.8077 10.6035 31.4557 11.6608 30.8471C12.9741 30.1101 14.2233 29.0535 15.6326 27.5159C17.0418 29.0535 18.3231 30.1101 19.6043 30.8471C20.6619 31.4557 21.7505 31.8077 22.8075 31.9357C23.0638 31.9683 23.3844 32 23.6407 32C24.5377 32 25.4343 31.84 26.2349 31.4874C28.4774 30.5898 30.0467 28.5406 30.3993 26.17C30.6537 25.0491 30.5257 23.9285 30.1094 22.7429ZM15.6636 24.4085C13.9337 22.2303 12.8125 20.1804 12.4285 18.4512C12.2685 17.7142 12.2362 17.0736 12.3325 16.497C12.3961 15.9843 12.5888 15.5357 12.8451 15.1514C13.4537 14.2871 14.4787 13.7421 15.6639 13.7421C16.8495 13.7421 17.9064 14.2548 18.4831 15.1514C18.7394 15.5357 18.9314 15.9846 18.996 16.497C19.0917 17.0739 19.0597 17.7462 18.8997 18.4512C18.5141 20.1484 17.3928 22.1986 15.6636 24.4085ZM28.4435 25.914C28.2195 27.5796 27.0982 29.0215 25.529 29.6621C24.7604 29.9821 23.9271 30.0784 23.0948 29.9821C22.2942 29.8858 21.4929 29.6295 20.6606 29.1495C19.5074 28.5082 18.3544 27.5159 17.0089 26.042C19.1227 23.4478 20.404 21.077 20.8846 18.9635C21.1089 17.9702 21.1413 17.0736 21.0446 16.2403C20.9169 15.4397 20.6283 14.7027 20.18 14.0621C19.1864 12.6202 17.5205 11.7879 15.6633 11.7879C13.806 11.7879 12.1402 12.6529 11.1472 14.0621C10.6989 14.7027 10.4103 15.4397 10.2823 16.2403C10.1543 17.0736 10.1859 18.0022 10.4423 18.9635C10.9226 21.077 12.2358 23.4795 14.3177 26.074C13.0045 27.5476 11.8192 28.5409 10.6659 29.1815C9.833 29.6621 9.0327 29.9184 8.23207 30.0141C7.36745 30.1104 6.53419 29.9821 5.79756 29.6941C4.22831 29.0535 3.10706 27.6116 2.88306 25.946C2.78706 25.1454 2.85074 24.3448 3.17138 23.4478C3.26705 23.1272 3.42769 22.8072 3.58769 22.4229C3.812 21.9103 4.06768 21.3653 4.32431 20.821L4.35664 20.7573C6.56651 15.9843 8.9367 11.1156 11.4032 6.37523L11.4992 6.1826C11.7558 5.70261 12.0122 5.18998 12.2682 4.70935C12.5245 4.19672 12.8125 3.71609 13.1651 3.29945C13.8377 2.53147 14.7343 2.11452 15.7276 2.11452C16.7209 2.11452 17.6175 2.53147 18.2901 3.29945C18.6427 3.71705 18.9307 4.19768 19.187 4.70935C19.4437 5.18998 19.7 5.70261 19.9557 6.1826L20.052 6.37523C22.4809 11.1353 24.8196 15.9409 27.0669 20.7893V20.8213C27.3235 21.3346 27.5475 21.9106 27.8038 22.4239C27.9638 22.8075 28.1241 23.1275 28.2201 23.4482C28.4758 24.2802 28.5718 25.0814 28.4435 25.914Z" fill="#191825" fill-opacity="0.5"/>
</svg>
