<svg width="40" height="40" viewBox="0 0 40 40" fill="none" xmlns="http://www.w3.org/2000/svg">
<path fill-rule="evenodd" clip-rule="evenodd" d="M33.9983 15.2433L35.1987 16.4433C36.1492 17.3767 36.666 18.6433 36.666 19.9767C36.6827 21.31 36.1658 22.5783 35.2322 23.5267C35.221 23.5388 35.2098 23.5497 35.1987 23.5603C35.1932 23.5657 35.1877 23.5712 35.182 23.5767L33.9983 24.76C33.5315 25.2267 33.2647 25.86 33.2647 26.5283V28.2433C33.2647 31.01 31.0138 33.2617 28.2462 33.2617H26.529C25.862 33.2617 25.2285 33.5267 24.7617 33.9933L23.5612 35.1933C22.5775 36.1783 21.2937 36.66 20.0098 36.66C18.7262 36.66 17.4423 36.1783 16.4586 35.2117L15.2415 33.9933C14.7747 33.5267 14.1411 33.2617 13.4742 33.2617H11.7569C8.98926 33.2617 6.73844 31.01 6.73844 28.2433V26.5283C6.73844 25.86 6.47167 25.2267 6.00484 24.7433L4.80441 23.56C2.85369 21.6117 2.83702 18.4267 4.78772 16.4616L6.00484 15.2433C6.47167 14.7766 6.73844 14.1433 6.73844 13.46V11.76C6.73844 8.99331 8.98926 6.74498 11.7569 6.74498H13.4742C14.1411 6.74498 14.7747 6.47665 15.2415 6.00998L16.442 4.80998C18.3927 2.84498 21.5772 2.84498 23.5445 4.79498L24.7617 6.00998C25.2285 6.47665 25.862 6.74498 26.529 6.74498H28.2462C31.0138 6.74498 33.2647 8.99331 33.2647 11.76V13.4783C33.2647 14.1433 33.5315 14.7766 33.9983 15.2433ZM15.7084 25.7433C16.1085 25.7433 16.4753 25.5933 16.742 25.31L25.3118 16.745C25.8787 16.1783 25.8787 15.2433 25.3118 14.6766C24.745 14.1116 23.828 14.1116 23.2612 14.6766L14.6913 23.2433C14.1244 23.81 14.1244 24.7433 14.6913 25.31C14.9581 25.5933 15.3249 25.7433 15.7084 25.7433ZM22.8277 24.2767C22.8277 25.0933 23.4778 25.7433 24.2948 25.7433C25.095 25.7433 25.7453 25.0933 25.7453 24.2767C25.7453 23.4783 25.095 22.8267 24.2948 22.8267C23.4778 22.8267 22.8277 23.4783 22.8277 24.2767ZM15.725 14.26C16.5253 14.26 17.1755 14.91 17.1755 15.71C17.1755 16.5283 16.5253 17.1767 15.725 17.1767C14.9247 17.1767 14.2578 16.5283 14.2578 15.71C14.2578 14.91 14.9247 14.26 15.725 14.26Z" fill="#FF5722"/>
</svg>
