<svg width="114" height="32" viewBox="0 0 114 32" fill="none" xmlns="http://www.w3.org/2000/svg">
<path d="M55.2698 25.0368H51.7549C51.7326 25.0368 51.7326 25.0368 51.7215 25.0257L48.6959 21.3327L45.6704 25.0257C45.6593 25.0368 45.6481 25.0368 45.637 25.0368H42.8228C42.8006 25.0368 42.7894 25.0257 42.7783 25.0146C42.7783 25.0034 42.7783 24.9812 42.7894 24.9701L47.2499 19.4974L42.8451 14.0803C42.8339 14.0581 42.8339 14.0469 42.8339 14.0247C42.8451 14.0136 42.8562 14.0024 42.8673 14.0024H46.3823C46.3934 14.0024 46.4045 14.0136 46.4157 14.0247L49.0741 17.3172L51.7771 14.0247C51.7882 14.0136 51.7994 14.0024 51.8105 14.0024H54.6692C54.6803 14.0024 54.7026 14.0136 54.7137 14.0247C54.7248 14.0469 54.7137 14.0581 54.7026 14.0803L50.5313 19.0969L55.3143 24.9701C55.3255 24.9812 55.3255 25.0034 55.3255 25.0146C55.3032 25.0368 55.2921 25.0368 55.2698 25.0368Z" fill="#191825" fill-opacity="0.5"/>
<path d="M74.2799 15.9379C72.7226 15.9379 71.6659 16.8834 71.3544 18.5185H76.6492V18.4073C76.6492 17.1059 75.6814 15.9379 74.2799 15.9379ZM79.3744 20.2093C79.3633 20.2204 79.3521 20.2315 79.341 20.2315H71.2988C71.4657 22.1002 72.6781 23.1681 74.647 23.1681C75.8594 23.1681 77.1497 22.7565 78.9628 21.7888C78.9962 21.7665 79.0296 21.7999 79.0296 21.8333V24.3027C79.0296 24.3249 79.0184 24.336 79.0073 24.336C77.3166 25.0479 75.6147 25.5374 74.2799 25.5374C70.8205 25.5374 68.3066 23.0124 68.3066 19.5419C68.3066 16.0714 70.8205 13.5464 74.2799 13.5464C77.4389 13.5464 79.4634 15.6709 79.4634 18.5964C79.4634 19.0747 79.3855 20.1759 79.3744 20.2093Z" fill="#191825" fill-opacity="0.5"/>
<path d="M95.7039 11.711C94.714 11.711 93.9131 10.9212 93.9131 9.95349C93.9131 8.95239 94.714 8.14038 95.7039 8.14038C96.6939 8.14038 97.4948 8.95239 97.4948 9.95349C97.4948 10.9212 96.6939 11.711 95.7039 11.711ZM94.2579 25.0368C94.2245 25.0368 94.2134 25.0256 94.2134 24.9923V14.0358C94.2134 14.0135 94.2245 13.9913 94.2468 13.9913H97.15C97.1722 13.9913 97.1834 14.0135 97.1834 14.0358V24.9923C97.1834 25.0256 97.1611 25.0368 97.1389 25.0368H94.2579Z" fill="#191825" fill-opacity="0.5"/>
<path d="M60.5874 23.3906C60.0646 23.3906 59.5307 23.3127 58.9078 23.157L58.9189 16.127C59.642 15.8934 60.2649 15.7933 60.8878 15.7933C62.9011 15.7933 64.247 17.2727 64.247 19.4863C64.247 21.8555 62.8121 23.3906 60.5874 23.3906ZM61.3772 13.5464C60.5541 13.5464 59.7309 13.691 58.8633 13.9913H55.9713C55.949 13.9913 55.9268 14.0136 55.9268 14.0358V32C56.7944 31.8777 57.8622 31.5662 58.9078 30.8321V25.3705C59.6197 25.4706 60.2092 25.5374 60.7765 25.5374C64.7364 25.5374 67.2948 23.1681 67.2948 19.4974C67.2948 15.9935 64.8588 13.5464 61.3772 13.5464Z" fill="#191825" fill-opacity="0.5"/>
<path d="M88.9739 22.4784C88.0729 22.9567 87.2609 23.1792 86.5045 23.1792C84.7137 23.1792 83.6347 21.9111 83.6347 19.7866C83.6347 17.3394 85.0029 15.7488 87.1274 15.7488C87.717 15.7488 88.2843 15.8934 88.9739 16.2049V22.4784ZM88.9739 8.19604V13.9246C88.1285 13.6799 87.3833 13.5686 86.6269 13.5686C83.1787 13.5686 80.5869 16.1604 80.5869 19.6086C80.5869 23.0346 82.8783 25.5262 86.0374 25.5262C87.1274 25.5262 88.1508 25.2481 89.3521 24.6364V25.6263C90.1419 25.4706 91.054 25.1592 91.955 24.514V7.01697C91.0762 7.13932 90.0306 7.43965 88.9739 8.19604Z" fill="#191825" fill-opacity="0.5"/>
<path d="M107.249 22.4562C106.371 22.9567 105.625 23.2014 104.958 23.2014C103.034 23.2014 101.888 21.9334 101.888 19.8088C101.888 17.395 103.245 15.771 105.258 15.771C105.792 15.771 106.448 15.9824 107.249 16.4051V22.4562ZM110.23 13.8578C110.23 13.7911 110.175 13.7355 110.108 13.7355H107.761C107.694 13.7355 107.628 13.7911 107.628 13.8578V14.2583H107.572C106.493 13.7799 105.559 13.5686 104.658 13.5686C101.41 13.5686 98.8623 16.2605 98.8623 19.7087C98.8623 23.1903 101.143 25.5262 104.535 25.5262C105.436 25.5262 106.604 25.4595 107.694 24.2136V25.6263C108.462 25.4595 109.374 25.1369 110.23 24.514V13.8578Z" fill="#191825" fill-opacity="0.5"/>
<path d="M34.7925 22.3004H42.0783C41.967 23.1124 41.689 24.069 41.0661 25.0367H33.4911C32.5678 25.0367 31.8003 24.3137 31.7113 23.4127C31.7113 23.4016 31.7002 23.3905 31.7002 23.3682V8.99687C31.7002 8.98575 31.7113 8.97462 31.7113 8.9635C31.8003 8.05139 32.5678 7.32837 33.4911 7.32837H42.0672C41.9559 8.14037 41.6778 9.11923 41.0438 10.087H34.7925V14.0024H40.9882C41.0104 14.0024 41.0327 14.0246 41.0327 14.0469V16.761C41.0327 16.7832 41.0104 16.8055 40.9882 16.8055H34.7925V22.3004Z" fill="#191825" fill-opacity="0.5"/>
<path d="M25.6709 25.2704C24.9479 25.2704 24.503 24.7031 24.503 24.0135C24.503 23.2793 25.0146 22.7565 25.6709 22.7565C26.3161 22.7565 26.8277 23.2682 26.8277 24.0135C26.8277 24.7587 26.3161 25.2704 25.6709 25.2704ZM25.6709 22.623C24.9368 22.623 24.3027 23.1792 24.3027 24.0135C24.3027 24.8032 24.87 25.4039 25.6709 25.4039C26.3939 25.4039 27.028 24.8477 27.028 24.0135C27.028 23.1792 26.405 22.623 25.6709 22.623Z" fill="#191825" fill-opacity="0.5"/>
<path d="M25.3486 23.9022V23.3905H25.6934C25.8714 23.3905 26.0716 23.4128 26.0716 23.6241C26.0716 23.88 25.8825 23.8911 25.6712 23.8911C25.6601 23.9022 25.3486 23.9022 25.3486 23.9022ZM26.3163 23.6575C26.3163 23.3238 26.1161 23.1792 25.7157 23.1792H25.0928V24.8255H25.3597V24.1247H25.6156L26.0383 24.8255H26.3497L25.8937 24.1024C26.1384 24.0802 26.3163 23.9578 26.3163 23.6575Z" fill="#191825" fill-opacity="0.5"/>
<path d="M112.633 15.8156C111.91 15.8156 111.465 15.2483 111.465 14.5586C111.465 13.8245 111.977 13.3017 112.633 13.3017C113.278 13.3017 113.79 13.8134 113.79 14.5586C113.79 15.3039 113.278 15.8156 112.633 15.8156ZM112.633 13.1793C111.899 13.1793 111.265 13.7355 111.265 14.5697C111.265 15.3595 111.832 15.9602 112.633 15.9602C113.356 15.9602 113.99 15.404 113.99 14.5697C113.99 13.7244 113.356 13.1793 112.633 13.1793Z" fill="#191825" fill-opacity="0.5"/>
<path d="M112.299 14.4474V13.9468H112.644C112.822 13.9468 113.022 13.9691 113.022 14.1804C113.022 14.4362 112.833 14.4474 112.622 14.4474H112.299ZM113.278 14.2138C113.278 13.8801 113.078 13.7355 112.678 13.7355H112.055V15.3817H112.322V14.681H112.577L113 15.3817H113.312L112.856 14.6587C113.089 14.6365 113.278 14.5141 113.278 14.2138Z" fill="#191825" fill-opacity="0.5"/>
<path d="M16.2717 10.0759L15.7489 8.58534L11.255 2.58985L12.0559 2.38963L19.7867 9.07476L24.3361 7.77333C24.87 7.63985 25.4818 7.60648 25.9379 7.60648C24.5141 4.52531 21.889 1.98919 18.4407 0.765622C11.6221 -1.67039 4.11385 1.9002 1.68896 8.72994C0.932577 10.8434 0.765726 13.0236 1.07718 15.0925L11.9669 11.3106L16.2717 10.0759Z" fill="#191825" fill-opacity="0.5"/>
<path d="M26.4274 8.78552C26.0269 9.04136 25.4374 9.38618 24.859 9.57528L20.2984 10.8767L17.2617 20.643L16.472 20.8989L17.1171 13.4462L16.7612 11.9001L12.4898 13.1236L1.18848 15.7599C2.08947 20.098 5.15951 23.891 9.64222 25.4817C16.472 27.9177 23.9691 24.3471 26.4051 17.5174C27.4507 14.5919 27.384 11.5219 26.4274 8.78552Z" fill="#191825" fill-opacity="0.5"/>
<path d="M16.7503 11.889L17.1063 13.4352L16.4611 20.8878L17.2509 20.632L20.2876 10.8657L24.8481 9.56422C25.4265 9.37513 26.0161 9.04143 26.4165 8.77447C26.2719 8.37403 26.1162 7.98471 25.9382 7.59539C25.471 7.59539 24.8704 7.61764 24.3365 7.76224L19.787 9.06367L12.0563 2.37854L11.2554 2.57876L15.7381 8.57425L16.2609 10.0648L11.9562 11.2995L1.06641 15.0814C1.09978 15.3039 1.14427 15.5375 1.18876 15.7599L12.479 13.1014L16.7503 11.889Z" fill="white"/>
</svg>
