<svg width="126" height="172" viewBox="0 0 126 172" fill="none" xmlns="http://www.w3.org/2000/svg">
<g filter="url(#filter0_ddd_57_2351)">
<rect x="31" width="64" height="64" rx="32" fill="#F85E9F"/>
<path d="M75.5809 19.4426C74.9139 18.7581 73.9269 18.5031 73.0065 18.7715L51.5443 25.0127C50.5733 25.2824 49.885 26.0569 49.6996 27.0407C49.5102 28.042 50.1718 29.313 51.0361 29.8445L57.7469 33.969C58.4351 34.3918 59.3235 34.2858 59.8931 33.7113L67.5775 25.979C67.9643 25.5764 68.6046 25.5764 68.9915 25.979C69.3783 26.3683 69.3783 26.9991 68.9915 27.4017L61.2937 35.1354C60.7227 35.7085 60.6161 36.601 61.0362 37.2936L65.1366 44.0717C65.6167 44.8769 66.4438 45.3333 67.3507 45.3333C67.4575 45.3333 67.5775 45.3333 67.6843 45.3198C68.7247 45.1857 69.5517 44.4744 69.8585 43.4677L76.2211 22.033C76.5013 21.1203 76.2478 20.1271 75.5809 19.4426Z" fill="white"/>
</g>
<defs>
<filter id="filter0_ddd_57_2351" x="0" y="0" width="126" height="172" filterUnits="userSpaceOnUse" color-interpolation-filters="sRGB">
<feFlood flood-opacity="0" result="BackgroundImageFix"/>
<feColorMatrix in="SourceAlpha" type="matrix" values="0 0 0 0 0 0 0 0 0 0 0 0 0 0 0 0 0 0 127 0" result="hardAlpha"/>
<feOffset dy="19"/>
<feGaussianBlur stdDeviation="9.5"/>
<feColorMatrix type="matrix" values="0 0 0 0 0 0 0 0 0 0 0 0 0 0 0 0 0 0 0.09 0"/>
<feBlend mode="normal" in2="BackgroundImageFix" result="effect1_dropShadow_57_2351"/>
<feColorMatrix in="SourceAlpha" type="matrix" values="0 0 0 0 0 0 0 0 0 0 0 0 0 0 0 0 0 0 127 0" result="hardAlpha"/>
<feOffset dy="43"/>
<feGaussianBlur stdDeviation="13"/>
<feColorMatrix type="matrix" values="0 0 0 0 0 0 0 0 0 0 0 0 0 0 0 0 0 0 0.05 0"/>
<feBlend mode="normal" in2="effect1_dropShadow_57_2351" result="effect2_dropShadow_57_2351"/>
<feColorMatrix in="SourceAlpha" type="matrix" values="0 0 0 0 0 0 0 0 0 0 0 0 0 0 0 0 0 0 127 0" result="hardAlpha"/>
<feOffset dy="77"/>
<feGaussianBlur stdDeviation="15.5"/>
<feColorMatrix type="matrix" values="0 0 0 0 0 0 0 0 0 0 0 0 0 0 0 0 0 0 0.01 0"/>
<feBlend mode="normal" in2="effect2_dropShadow_57_2351" result="effect3_dropShadow_57_2351"/>
<feBlend mode="normal" in="SourceGraphic" in2="effect3_dropShadow_57_2351" result="shape"/>
</filter>
</defs>
</svg>
