<svg width="40" height="40" viewBox="0 0 40 40" fill="none" xmlns="http://www.w3.org/2000/svg">
<path d="M15.2477 12.4805C14.3144 12.4805 13.5811 13.2305 13.5811 14.1471C13.5811 15.0638 14.3311 15.8138 15.2477 15.8138C16.1644 15.8138 16.9143 15.0638 16.9143 14.1471C16.9143 13.2305 16.1644 12.4805 15.2477 12.4805Z" fill="#FF5722"/>
<path d="M35.7663 8.40004C34.3663 5.15004 31.283 3.33337 26.983 3.33337H13.0163C7.66634 3.33337 3.33301 7.66671 3.33301 13.0167V26.9834C3.33301 31.2834 5.14967 34.3667 8.39967 35.7667C8.71634 35.9 9.08301 35.8167 9.31634 35.5834L35.583 9.31671C35.833 9.06671 35.9163 8.70004 35.7663 8.40004ZM17.5497 20.4C16.8997 21.0334 16.0497 21.3334 15.1997 21.3334C14.3497 21.3334 13.4997 21.0167 12.8497 20.4C11.1497 18.8 9.28301 16.25 9.99967 13.2167C10.633 10.4667 13.0663 9.23337 15.1997 9.23337C17.333 9.23337 19.7663 10.4667 20.3997 13.2334C21.0997 16.25 19.233 18.8 17.5497 20.4Z" fill="#FF5722"/>
<path d="M32.4482 34.2159C32.8148 34.5826 32.7648 35.1826 32.3148 35.4326C30.8482 36.2492 29.0648 36.6659 26.9815 36.6659H13.0149C12.5315 36.6659 12.3315 36.0992 12.6649 35.7659L22.7315 25.6992C23.0648 25.3659 23.5815 25.3659 23.9148 25.6992L32.4482 34.2159Z" fill="#FF5722"/>
<path d="M36.6699 13.0149V26.9815C36.6699 29.0648 36.2532 30.8648 35.4365 32.3148C35.1865 32.7648 34.5865 32.7982 34.2199 32.4482L25.6865 23.9148C25.3532 23.5815 25.3532 23.0648 25.6865 22.7315L35.7532 12.6649C36.1032 12.3315 36.6699 12.5315 36.6699 13.0149Z" fill="#FF5722"/>
</svg>
