<svg width="65" height="171" viewBox="0 0 65 171" fill="none" xmlns="http://www.w3.org/2000/svg">
<g clip-path="url(#clip0_57_2701)">
<path d="M44.0254 170.703L65 170.703L54.5127 160.216L44.0254 170.703Z" fill="#FF5722"/>
<path d="M44.0254 135.164L65 135.164L54.5127 124.677L44.0254 135.164Z" fill="#FF5722"/>
<path d="M44.0254 99.6107L65 99.6107L54.5127 89.1234L44.0254 99.6107Z" fill="#FF5722"/>
<path d="M44.0254 64.0721L65 64.0721L54.5127 53.5849L44.0254 64.0721Z" fill="#FF5722"/>
<path d="M44.0254 28.5336L65 28.5336L54.5127 18.0311L44.0254 28.5336Z" fill="#FF5722"/>
<path d="M1.90735e-05 153.426L20.9746 153.426L10.4873 142.939L1.90735e-05 153.426Z" fill="#FF5722"/>
<path d="M1.90735e-05 117.873L20.9746 117.873L10.4873 107.385L1.90735e-05 117.873Z" fill="#FF5722"/>
<path d="M1.90735e-05 82.3339L20.9746 82.3339L10.4873 71.8466L1.90735e-05 82.3339Z" fill="#FF5722"/>
<path d="M1.90735e-05 46.7954L20.9746 46.7954L10.4873 36.3081L1.90735e-05 46.7954Z" fill="#FF5722"/>
<path d="M1.90735e-05 11.2416L20.9746 11.2416L10.4873 0.754286L1.90735e-05 11.2416Z" fill="#FF5722"/>
</g>
<defs>
<clipPath id="clip0_57_2701">
<rect width="65" height="169.949" fill="white" transform="translate(65 170.703) rotate(180)"/>
</clipPath>
</defs>
</svg>
