<svg width="202" height="202" viewBox="0 0 202 202" fill="none" xmlns="http://www.w3.org/2000/svg">
<path d="M103.062 0H98.4561V11.5142H103.062V0Z" fill="#FF5722"/>
<path d="M103.062 0H98.4561V11.5142H103.062V0Z" fill="#FF5722"/>
<path d="M103.062 190.001H98.4561V201.516H103.062V190.001Z" fill="#FF5722"/>
<path d="M11.5151 98.4551H0.000976562V103.061H11.5151V98.4551Z" fill="#FF5722"/>
<path d="M11.5151 98.4551H0.000976562V103.061H11.5151V98.4551Z" fill="#FF5722"/>
<path d="M201.516 98.4551H190.002V103.061H201.516V98.4551Z" fill="#FF5722"/>
<path d="M31.1551 27.8827L27.8984 31.1394L36.0402 39.2811L39.2969 36.0244L31.1551 27.8827Z" fill="#FF5722"/>
<path d="M31.1551 27.8827L27.8984 31.1394L36.0402 39.2811L39.2969 36.0244L31.1551 27.8827Z" fill="#FF5722"/>
<path d="M165.488 162.244L162.231 165.501L170.373 173.643L173.63 170.386L165.488 162.244Z" fill="#FF5722"/>
<path d="M36.03 162.228L27.8896 170.371L31.1469 173.628L39.2872 165.484L36.03 162.228Z" fill="#FF5722"/>
<path d="M36.03 162.228L27.8896 170.371L31.1469 173.628L39.2872 165.484L36.03 162.228Z" fill="#FF5722"/>
<path d="M170.376 27.878L162.235 36.0211L165.493 39.2772L173.633 31.1341L170.376 27.878Z" fill="#FF5722"/>
<path d="M80.0441 2.1285L75.5596 3.17786L78.183 14.3892L82.6675 13.3398L80.0441 2.1285Z" fill="#FF5722"/>
<path d="M80.0441 2.1285L75.5596 3.17786L78.183 14.3892L82.6675 13.3398L80.0441 2.1285Z" fill="#FF5722"/>
<path d="M123.341 187.139L118.856 188.188L121.48 199.399L125.964 198.35L123.341 187.139Z" fill="#FF5722"/>
<path d="M13.3481 118.848L2.1377 121.476L3.18862 125.96L14.399 123.332L13.3481 118.848Z" fill="#FF5722"/>
<path d="M13.3481 118.848L2.1377 121.476L3.18862 125.96L14.399 123.332L13.3481 118.848Z" fill="#FF5722"/>
<path d="M198.346 75.5662L187.135 78.1915L188.185 82.6759L199.396 80.0505L198.346 75.5662Z" fill="#FF5722"/>
<path d="M16.3737 45.6653L13.9453 49.5787L23.729 55.6496L26.1573 51.7361L16.3737 45.6653Z" fill="#FF5722"/>
<path d="M16.3737 45.6653L13.9453 49.5787L23.729 55.6496L26.1573 51.7361L16.3737 45.6653Z" fill="#FF5722"/>
<path d="M177.798 145.852L175.37 149.765L185.154 155.836L187.582 151.923L177.798 145.852Z" fill="#FF5722"/>
<path d="M51.7562 175.359L45.6836 185.142L49.5966 187.571L55.6692 177.788L51.7562 175.359Z" fill="#FF5722"/>
<path d="M51.7562 175.359L45.6836 185.142L49.5966 187.571L55.6692 177.788L51.7562 175.359Z" fill="#FF5722"/>
<path d="M151.922 13.9277L145.85 23.7103L149.763 26.1394L155.835 16.3567L151.922 13.9277Z" fill="#FF5722"/>
<path d="M65.7368 6.24233L61.4561 7.94153L65.704 18.6434L69.9848 16.9442L65.7368 6.24233Z" fill="#FF5722"/>
<path d="M65.7368 6.24233L61.4561 7.94153L65.704 18.6434L69.9848 16.9442L65.7368 6.24233Z" fill="#FF5722"/>
<path d="M135.818 182.855L131.537 184.554L135.785 195.256L140.066 193.557L135.818 182.855Z" fill="#FF5722"/>
<path d="M16.9568 131.525L6.25488 135.773L7.95408 140.054L18.656 135.806L16.9568 131.525Z" fill="#FF5722"/>
<path d="M16.9568 131.525L6.25488 135.773L7.95408 140.054L18.656 135.806L16.9568 131.525Z" fill="#FF5722"/>
<path d="M193.569 61.4443L182.867 65.6923L184.566 69.973L195.268 65.725L193.569 61.4443Z" fill="#FF5722"/>
<path d="M9.17677 58.6984L7.35059 62.9265L17.921 67.492L19.7471 63.2638L9.17677 58.6984Z" fill="#FF5722"/>
<path d="M9.17677 58.6984L7.35059 62.9265L17.921 67.492L19.7471 63.2638L9.17677 58.6984Z" fill="#FF5722"/>
<path d="M183.623 134.038L181.797 138.266L192.367 142.832L194.193 138.604L183.623 134.038Z" fill="#FF5722"/>
<path d="M63.2824 181.792L58.7188 192.363L62.9472 194.189L67.5108 183.617L63.2824 181.792Z" fill="#FF5722"/>
<path d="M63.2824 181.792L58.7188 192.363L62.9472 194.189L67.5108 183.617L63.2824 181.792Z" fill="#FF5722"/>
<path d="M138.582 7.344L134.019 17.9152L138.247 19.7406L142.811 9.16944L138.582 7.344Z" fill="#FF5722"/>
<path d="M45.1248 16.7269L41.3438 19.3567L47.9183 28.8092L51.6994 26.1794L45.1248 16.7269Z" fill="#FF5722"/>
<path d="M45.1248 16.7269L41.3438 19.3567L47.9183 28.8092L51.6994 26.1794L45.1248 16.7269Z" fill="#FF5722"/>
<path d="M153.615 172.698L149.834 175.328L156.409 184.78L160.19 182.15L153.615 172.698Z" fill="#FF5722"/>
<path d="M26.186 149.818L16.7334 156.392L19.3632 160.173L28.8158 153.599L26.186 149.818Z" fill="#FF5722"/>
<path d="M26.186 149.818L16.7334 156.392L19.3632 160.173L28.8158 153.599L26.186 149.818Z" fill="#FF5722"/>
<path d="M182.17 41.3512L172.718 47.9258L175.348 51.7068L184.8 45.1322L182.17 41.3512Z" fill="#FF5722"/>
<path d="M1.99272 80.6766L1.17871 85.2097L12.5116 87.2447L13.3256 82.7116L1.99272 80.6766Z" fill="#FF5722"/>
<path d="M1.99272 80.6766L1.17871 85.2097L12.5116 87.2447L13.3256 82.7116L1.99272 80.6766Z" fill="#FF5722"/>
<path d="M189.019 114.268L188.205 118.801L199.538 120.836L200.352 116.303L189.019 114.268Z" fill="#FF5722"/>
<path d="M82.7323 188.187L80.6992 199.52L85.2325 200.333L87.2656 189L82.7323 188.187Z" fill="#FF5722"/>
<path d="M82.7323 188.187L80.6992 199.52L85.2325 200.333L87.2656 189L82.7323 188.187Z" fill="#FF5722"/>
<path d="M116.295 1.17175L114.262 12.505L118.795 13.3182L120.828 1.98497L116.295 1.17175Z" fill="#FF5722"/>
</svg>
