<?xml version="1.0" standalone="no"?>
<!DOCTYPE svg PUBLIC "-//W3C//DTD SVG 20010904//EN"
 "http://www.w3.org/TR/2001/REC-SVG-20010904/DTD/svg10.dtd">
<svg version="1.0" xmlns="http://www.w3.org/2000/svg"
 width="656.000000pt" height="656.000000pt" viewBox="0 0 656.000000 656.000000"
 preserveAspectRatio="xMidYMid meet">
<metadata>
Created by potrace 1.14, written by Peter Selinger 2001-2017
</metadata>
<g transform="translate(0.000000,656.000000) scale(0.100000,-0.100000)"
fill="#000000" stroke="none">
<path d="M3098 6475 c-1 -1 -43 -5 -93 -9 -144 -10 -210 -19 -390 -57 -55 -12
-106 -22 -112 -22 -7 0 -13 -3 -13 -7 0 -6 96 -38 137 -46 17 -3 254 -83 278
-94 11 -5 47 -18 80 -30 33 -11 69 -25 80 -30 11 -5 61 -25 110 -45 116 -47
172 -73 500 -229 88 -42 171 -82 185 -88 14 -6 37 -17 53 -25 15 -8 27 -11 27
-7 0 3 6 2 13 -4 13 -10 268 -109 357 -137 30 -10 62 -20 70 -23 18 -6 35 -11
53 -15 6 -1 17 -5 22 -8 6 -4 35 -12 65 -19 30 -7 61 -17 68 -23 6 -5 12 -7
12 -4 0 3 24 -1 53 -9 28 -8 61 -16 72 -18 11 -2 29 -6 40 -9 11 -3 36 -9 55
-12 19 -3 43 -8 53 -11 11 -3 29 -7 40 -9 12 -1 49 -7 82 -14 33 -6 83 -13
110 -16 28 -3 64 -8 80 -11 98 -17 475 -39 475 -28 0 2 -17 22 -37 43 -21 22
-45 48 -54 58 -102 118 -448 394 -606 484 -32 18 -60 35 -63 38 -11 13 -260
141 -338 174 -236 101 -526 188 -746 223 -21 3 -47 7 -58 9 -11 2 -46 7 -79
10 -33 4 -70 9 -82 11 -24 6 -493 14 -499 9z"/>
<path d="M1393 5864 c-32 -24 -62 -47 -68 -51 -5 -5 -30 -24 -54 -42 -85 -67
-128 -107 -278 -259 -84 -85 -151 -158 -148 -162 3 -5 15 -7 28 -4 17 3 329
17 372 16 56 -2 308 -13 335 -16 77 -7 167 -17 200 -21 87 -11 117 -16 140
-21 14 -2 47 -7 74 -10 28 -3 53 -7 57 -9 4 -3 24 -7 45 -11 21 -3 67 -12 103
-20 36 -8 77 -17 91 -20 14 -2 32 -7 40 -10 8 -3 26 -8 38 -10 56 -11 290 -78
342 -98 19 -8 37 -14 40 -14 7 -1 16 -4 140 -48 228 -80 452 -178 794 -346
206 -101 675 -282 812 -313 10 -2 44 -11 74 -20 30 -8 68 -17 84 -20 16 -3 33
-8 38 -11 4 -3 16 -7 26 -9 9 -1 62 -12 117 -24 130 -26 152 -31 200 -37 22
-3 47 -7 55 -9 8 -3 42 -7 74 -11 33 -3 69 -8 80 -10 85 -16 559 -24 691 -11
133 13 162 16 205 22 63 8 163 26 172 31 6 4 -28 105 -63 189 -7 17 -13 32
-14 35 -20 56 -127 274 -139 282 -6 4 -18 6 -26 3 -87 -25 -644 -24 -860 1
-25 3 -61 7 -80 9 -32 4 -75 10 -152 21 -16 2 -40 6 -55 8 -23 4 -158 28 -223
41 -8 2 -55 13 -105 25 -49 12 -101 24 -114 26 -14 3 -28 7 -33 10 -5 3 -21 8
-35 10 -92 17 -577 182 -645 220 -16 8 -28 13 -28 10 0 -3 -43 15 -95 39 -53
24 -99 45 -103 46 -4 1 -41 18 -82 37 -41 20 -77 36 -80 37 -3 1 -77 36 -165
79 -88 42 -171 82 -185 88 -14 6 -33 14 -42 19 -10 5 -25 9 -33 9 -8 0 -15 5
-15 10 0 6 -6 10 -14 10 -7 0 -46 14 -87 31 -163 67 -577 201 -664 214 -11 2
-42 8 -70 14 -27 6 -59 13 -70 16 -85 18 -306 55 -370 60 -90 8 -163 16 -187
19 -19 2 -43 -9 -85 -40z"/>
<path d="M1218 4725 c-3 -3 -67 -7 -144 -10 -143 -6 -183 -9 -269 -19 -104
-13 -140 -18 -145 -21 -3 -2 -26 -6 -50 -10 -167 -24 -250 -52 -255 -85 -1 -3
-9 -23 -19 -45 -35 -79 -96 -247 -126 -353 -46 -157 -46 -158 -2 -141 31 12
21 10 182 43 141 28 167 33 229 41 23 3 55 7 70 9 34 6 125 16 209 23 37 3
184 6 327 6 233 1 307 -2 452 -18 23 -3 66 -7 96 -10 29 -3 63 -7 74 -10 12
-2 43 -7 70 -11 26 -3 57 -8 68 -10 11 -3 35 -7 54 -10 18 -3 43 -8 55 -10 11
-2 32 -6 46 -9 59 -11 206 -46 275 -65 22 -6 47 -12 55 -14 8 -2 35 -10 60
-17 25 -7 50 -13 55 -15 6 -1 62 -19 125 -39 224 -73 468 -168 665 -261 44
-20 82 -38 85 -38 3 -1 55 -26 115 -55 145 -71 295 -141 300 -141 3 0 24 -9
48 -19 57 -27 117 -51 147 -61 14 -5 50 -18 80 -30 108 -41 361 -123 455 -146
17 -4 35 -8 40 -10 46 -14 96 -26 129 -30 21 -2 43 -7 50 -11 6 -4 20 -8 31
-9 11 -1 34 -5 50 -8 51 -11 138 -26 185 -32 25 -3 56 -7 70 -10 14 -3 48 -7
75 -10 28 -2 79 -7 115 -10 84 -9 537 -9 615 -1 82 9 203 24 255 33 14 2 41 7
60 10 45 7 115 22 163 35 l38 10 -5 212 c-6 260 -13 319 -35 313 -18 -6 -53
-12 -121 -20 -25 -3 -54 -8 -66 -10 -221 -43 -709 -53 -1039 -21 -137 13 -226
24 -250 32 -11 3 -36 7 -55 9 -27 2 -256 47 -350 69 -39 9 -287 77 -300 82 -8
4 -17 7 -20 8 -4 1 -99 30 -130 40 -3 1 -12 4 -20 8 -8 3 -43 15 -77 26 -71
24 -228 84 -292 113 -24 10 -64 27 -90 38 -25 10 -75 32 -110 49 -36 17 -70
31 -77 31 -6 0 -17 7 -24 15 -6 8 -15 14 -18 13 -4 -1 -69 29 -144 65 -75 37
-142 67 -148 67 -5 0 -10 5 -10 10 0 6 -3 9 -7 8 -5 -1 -26 6 -48 16 -22 10
-78 33 -125 52 -47 19 -96 40 -110 46 -14 6 -29 13 -35 14 -5 2 -102 35 -215
73 -113 39 -216 72 -230 75 -14 3 -52 12 -85 21 -63 17 -176 43 -210 49 -11 1
-29 6 -40 9 -11 3 -40 9 -65 12 -25 3 -52 8 -60 10 -8 2 -35 7 -60 10 -25 2
-55 7 -68 9 -21 5 -60 9 -187 22 -22 2 -102 6 -178 9 -76 3 -142 7 -146 10 -5
2 -10 2 -13 0z"/>
<path d="M987 3524 c-2 -2 -30 -6 -63 -8 -118 -10 -177 -18 -429 -62 -48 -9
-212 -53 -300 -82 -88 -28 -90 -29 -106 -31 -8 -1 -10 -47 -5 -163 3 -90 8
-179 10 -198 9 -88 18 -167 22 -185 3 -11 7 -36 10 -55 8 -46 12 -65 14 -65 1
0 3 -16 5 -35 4 -42 63 -267 76 -292 5 -10 8 -18 5 -18 -4 0 52 -166 71 -210
3 -8 7 -18 7 -21 3 -21 147 -318 198 -409 17 -30 65 -106 107 -169 42 -63 81
-122 86 -130 6 -9 13 -18 16 -21 4 -3 24 -28 45 -56 22 -28 57 -73 79 -100 43
-53 288 -300 345 -349 117 -99 149 -125 158 -125 5 0 12 -7 16 -15 3 -8 12
-15 20 -15 8 0 16 -4 18 -9 3 -8 155 -113 233 -160 202 -123 416 -221 667
-305 58 -19 117 -37 130 -40 31 -7 52 -12 121 -30 31 -9 72 -18 90 -20 17 -2
43 -7 57 -10 34 -8 78 -16 120 -21 19 -3 58 -8 85 -11 91 -12 119 -14 280 -20
193 -6 163 -6 265 0 139 9 228 18 307 30 23 4 55 9 70 11 24 3 73 13 149 29
12 2 38 9 58 14 20 6 36 8 36 5 0 -3 6 0 13 6 8 6 17 8 20 5 3 -3 12 -2 19 2
7 5 20 10 28 11 20 3 246 78 285 94 17 7 32 13 35 14 3 1 22 9 44 18 21 9 41
17 45 17 7 0 261 128 316 159 54 31 220 136 237 149 7 6 60 47 118 90 139 104
171 132 330 292 257 258 463 548 617 870 57 120 147 341 158 391 2 9 10 36 18
60 8 24 17 57 21 72 7 28 6 28 -32 22 -68 -10 -116 -17 -142 -20 -14 -1 -47
-5 -75 -9 -141 -16 -211 -20 -450 -20 -270 0 -354 4 -555 30 -30 4 -66 8 -80
10 -14 1 -36 5 -50 8 -14 2 -43 7 -65 10 -69 10 -197 34 -255 49 -14 4 -36 9
-50 12 -37 7 -100 22 -145 35 -22 6 -48 13 -58 15 -10 2 -27 7 -37 10 -10 3
-27 8 -37 10 -10 2 -83 25 -163 51 -80 26 -149 49 -155 50 -5 1 -46 17 -90 34
-44 18 -84 33 -90 34 -5 2 -21 8 -35 14 -14 6 -74 32 -135 57 -144 61 -150 64
-355 163 -96 46 -193 92 -215 102 -22 9 -60 27 -85 38 -183 85 -560 216 -750
262 -19 5 -62 15 -96 24 -34 8 -72 17 -85 20 -13 2 -58 11 -99 19 -79 16 -119
23 -185 32 -22 3 -51 8 -65 10 -14 3 -55 7 -91 11 -36 3 -86 8 -110 11 -50 6
-536 12 -542 7z"/>
</g>
</svg>
