<svg width="32" height="32" viewBox="0 0 32 32" fill="none" xmlns="http://www.w3.org/2000/svg">
<path d="M28.5809 3.4426C27.9139 2.75809 26.9269 2.50308 26.0065 2.77151L4.54433 9.01265C3.57326 9.28244 2.88498 10.0569 2.69957 11.0407C2.51015 12.042 3.17177 13.313 4.03611 13.8445L10.7469 17.969C11.4351 18.3918 12.3235 18.2858 12.8931 17.7113L20.5775 9.97903C20.9643 9.57637 21.6046 9.57637 21.9915 9.97903C22.3783 10.3683 22.3783 10.9991 21.9915 11.4017L14.2937 19.1354C13.7227 19.7085 13.6161 20.601 14.0362 21.2936L18.1366 28.0717C18.6167 28.8769 19.4438 29.3333 20.3507 29.3333C20.4575 29.3333 20.5775 29.3333 20.6843 29.3198C21.7247 29.1857 22.5517 28.4744 22.8585 27.4677L29.2211 6.03301C29.5013 5.12033 29.2478 4.12712 28.5809 3.4426Z" fill="white"/>
</svg>
