<svg width="212" height="32" viewBox="0 0 212 32" fill="none" xmlns="http://www.w3.org/2000/svg">
<path d="M22.8006 19.2269C24.6223 24.1625 30.1129 26.6889 35.0499 24.8714C39.984 23.0412 42.5161 17.5563 40.6873 12.6193C38.8642 7.67668 33.3821 5.15453 28.4381 6.97624C23.4982 8.80501 20.9761 14.2871 22.8006 19.2269Z" fill="white"/>
<path d="M10.6083 25.4221C15.8743 25.4221 20.1433 21.1531 20.1433 15.8871C20.1433 10.621 15.8743 6.35205 10.6083 6.35205C5.34222 6.35205 1.07324 10.621 1.07324 15.8871C1.07324 21.1531 5.34222 25.4221 10.6083 25.4221Z" fill="white"/>
<path d="M12.2338 15.7854C12.2338 16.757 11.4444 17.5535 10.4728 17.5535C9.49698 17.5535 8.70898 16.7584 8.70898 15.7854C8.70898 14.8153 9.49698 14.0287 10.4728 14.0287C11.4444 14.0301 12.2338 14.8153 12.2338 15.7854Z" fill="#191825" fill-opacity="0.5"/>
<path d="M33.4829 15.7854C33.4829 16.757 32.6963 17.5535 31.7248 17.5535C30.7461 17.5535 29.9609 16.7584 29.9609 15.7854C29.9609 14.8153 30.7461 14.0287 31.7248 14.0287C32.6977 14.0301 33.4829 14.8153 33.4829 15.7854Z" fill="#191825" fill-opacity="0.5"/>
<path d="M5.2334 15.7854C5.2334 18.6761 7.58468 21.0231 10.4754 21.0231C13.3591 21.0231 15.7089 18.6761 15.7089 15.7854C15.7089 12.9017 13.3577 10.5532 10.4754 10.5532C7.58609 10.556 5.2334 12.9031 5.2334 15.7854ZM7.03958 15.7854C7.03958 13.8944 8.5845 12.3566 10.4782 12.3566C12.3691 12.3566 13.9056 13.8987 13.9056 15.7854C13.9056 17.6819 12.3691 19.2226 10.4782 19.2226C8.5845 19.224 7.03958 17.6847 7.03958 15.7854Z" fill="#191825" fill-opacity="0.5"/>
<path d="M26.4854 15.7854C26.4854 18.6761 28.8338 21.0231 31.7231 21.0231C34.6082 21.0231 36.9553 18.6761 36.9553 15.7854C36.9553 12.9017 34.6082 10.5532 31.7231 10.5532C28.8352 10.556 26.4854 12.9031 26.4854 15.7854ZM28.2915 15.7854C28.2915 13.8944 29.8322 12.3566 31.7274 12.3566C33.6183 12.3566 35.1533 13.8987 35.1533 15.7854C35.1533 17.6819 33.6183 19.2226 31.7274 19.2226C29.8294 19.224 28.2915 17.6847 28.2915 15.7854Z" fill="#191825" fill-opacity="0.5"/>
<path d="M28.0715 5.97215C29.1758 5.56544 30.3056 5.36774 31.4212 5.33667C28.3822 3.97674 24.9421 3.2876 21.1306 3.2876C17.3488 3.2876 13.8579 3.99228 10.8203 5.29148C16.3179 5.40022 20.7875 9.70596 21.173 15.133C21.2662 13.8874 21.5712 12.656 22.1093 11.4895C23.2941 8.90949 25.4138 6.9522 28.0715 5.97215Z" fill="white"/>
<path d="M40.2697 9.62262C40.7668 7.49446 42.3442 5.3649 42.3442 5.3649L35.265 5.36066C31.2953 2.79755 26.4741 1.43762 21.1333 1.43762C15.5891 1.43762 10.5829 2.83003 6.63583 5.4115L0 5.41715C0 5.41715 1.55905 7.52271 2.06319 9.63533C0.772462 11.3907 0.00564872 13.5471 0.00564872 15.8885C0.00564872 21.7335 4.76328 26.4883 10.6111 26.4883C13.9538 26.4883 16.9349 24.9306 18.8794 22.5102L21.1375 25.8909L23.4125 22.4805C24.4364 23.7825 25.7568 24.8389 27.3045 25.5548C29.8789 26.7382 32.764 26.8555 35.4203 25.874C40.9066 23.8447 43.7239 17.7285 41.6946 12.2493C41.3387 11.2848 40.853 10.4078 40.2697 9.62262ZM21.1319 3.28899C24.9433 3.28899 28.3834 3.97813 31.4224 5.33948C30.3054 5.36913 29.1771 5.56825 28.0727 5.97213C25.415 6.95219 23.2953 8.90947 22.1133 11.4853C21.5753 12.6517 21.2717 13.8832 21.1771 15.1287C20.7887 9.70452 16.3192 5.39879 10.8215 5.28722C13.8577 3.99226 17.3472 3.28899 21.1319 3.28899ZM17.6184 20.6249C16.096 22.8703 13.5202 24.3502 10.6083 24.3502C5.93963 24.3502 2.14087 20.5487 2.14087 15.8899C2.14087 11.2184 5.94104 7.42385 10.6083 7.42385C15.2756 7.42385 19.0743 11.2184 19.0743 15.8899C19.0743 16.1751 19.0192 16.4434 18.9896 16.7188C18.8484 18.1494 18.388 19.4895 17.6184 20.6249ZM34.6789 23.8673C32.5578 24.6468 30.2574 24.5607 28.2026 23.6131C26.7453 22.9381 25.552 21.8803 24.692 20.567C24.3417 20.036 24.0339 19.4726 23.8065 18.8555C23.5481 18.1578 23.4196 17.439 23.3504 16.7146C23.2092 15.2459 23.4224 13.7603 24.0551 12.3834C25.0041 10.3287 26.693 8.76542 28.8141 7.98025C33.1947 6.36472 38.071 8.6115 39.6893 12.9907C41.3063 17.3698 39.0581 22.2461 34.6789 23.8673Z" fill="#191825" fill-opacity="0.5"/>
<path d="M54.8517 2.98674L51.7477 4.05859C51.7477 4.05859 51.7477 7.77545 51.7477 8.10872C51.4229 8.10872 48.3076 8.10872 48.3076 8.10872V10.8243C48.3076 10.8243 51.3269 10.8243 51.6545 10.8243C51.6545 11.1774 51.6545 19.5431 51.6545 19.5431C51.6545 23.6865 53.0653 25.3867 56.535 25.3867C57.4148 25.3867 58.255 25.278 59.0981 25.0478L59.2351 25.0139L59.1969 22.198L58.9597 22.2884C58.2776 22.5243 57.7438 22.6401 57.3314 22.6401C55.7018 22.6401 55.0974 21.7235 55.0974 19.2494C55.0974 19.2494 55.0974 11.176 55.0974 10.8286C55.4278 10.8286 59.067 10.8286 59.067 10.8286V8.10872C59.067 8.10872 55.4292 8.10872 55.0974 8.10872C55.0974 7.77262 55.0974 2.90625 55.0974 2.90625L54.8517 2.98674Z" fill="#191825" fill-opacity="0.5"/>
<path d="M65.5847 10.8597C65.5847 9.90363 65.5847 8.10875 65.5847 8.10875H62.4355V25.0874H65.8784V16.5649C65.8784 12.9921 67.3796 11.0235 70.0994 11.0235C70.4934 11.0235 70.8761 11.0828 71.3422 11.2141L71.5653 11.2777L71.6783 7.92657L70.1969 7.8136C68.2015 7.81219 66.5902 8.88968 65.5847 10.8597Z" fill="#191825" fill-opacity="0.5"/>
<path d="M77.8143 8.10732H74.555V25.0874H77.9978V8.10732H77.8143ZM74.2217 3.13221C74.2217 4.26195 75.1424 5.17846 76.2693 5.17846C77.3991 5.17846 78.317 4.26195 78.317 3.13221C78.317 2.00388 77.3991 1.08314 76.2693 1.08314C75.1424 1.08031 74.2217 2.00388 74.2217 3.13221Z" fill="#191825" fill-opacity="0.5"/>
<path d="M90.1568 7.70911C87.7943 7.70911 85.8073 8.82755 84.4827 10.8625C84.4827 10.0491 84.4827 8.10452 84.4827 8.10452H81.335V32H84.7807C84.7807 32 84.7807 23.6554 84.7807 22.7375C86.0234 24.4279 87.8056 25.3571 90.0241 25.3571C94.3764 25.3571 97.1881 21.7857 97.1881 16.2712C97.1881 11.1506 94.3609 7.70911 90.1568 7.70911ZM89.1952 22.5723C86.4711 22.5723 84.7793 20.2436 84.7793 16.5028C84.7793 12.8918 86.5643 10.5589 89.3265 10.5589C91.9884 10.5589 93.58 12.7704 93.58 16.4674C93.5814 20.2309 91.8995 22.5723 89.1952 22.5723Z" fill="#191825" fill-opacity="0.5"/>
<path d="M107.251 7.70911C105.145 7.70911 103.301 8.10734 101.609 8.92076L101.505 8.9716L101.541 11.9103L101.813 11.7578C103.43 10.854 104.96 10.3922 106.354 10.3922C108.848 10.3922 110.28 11.8214 110.28 14.3195C110.28 14.3195 110.28 14.3915 110.28 14.465C109.976 14.465 108.31 14.465 108.31 14.465C102.642 14.465 99.5234 16.5183 99.5234 20.2408C99.5234 23.2304 101.774 25.3204 104.997 25.3204C107.368 25.3204 109.203 24.3884 110.51 22.6344C110.51 23.3165 110.51 25.086 110.51 25.086H113.621V14.811C113.62 10.1013 111.478 7.70911 107.251 7.70911ZM110.274 17.9192C110.274 20.8438 108.515 22.7361 105.792 22.7361C104.124 22.7361 102.961 21.6403 102.961 20.0727C102.961 18.0124 104.931 16.8812 108.506 16.8812C108.506 16.8812 109.979 16.8812 110.277 16.8812C110.274 17.1453 110.274 17.9192 110.274 17.9192Z" fill="#191825" fill-opacity="0.5"/>
<path d="M128.243 0C128.243 0 128.243 9.46584 128.243 10.412C126.973 8.64678 125.206 7.71192 122.937 7.71192C118.725 7.71192 115.895 11.1802 115.895 16.3347C115.895 21.6445 118.765 25.3529 122.868 25.3529C125.298 25.3529 127.193 24.2768 128.507 22.1853C128.507 23.0312 128.507 25.0888 128.507 25.0888H131.69V0H128.243ZM123.76 22.5031C121.137 22.5031 119.507 20.2154 119.507 16.5324C119.507 12.8452 121.151 10.4614 123.698 10.4614C126.542 10.4614 128.24 12.7294 128.24 16.5324C128.243 20.1659 126.489 22.5031 123.76 22.5031Z" fill="#191825" fill-opacity="0.5"/>
<path d="M147.074 8.1073L142.192 17.9121L137.679 8.1073H133.8L142.12 25.0874L150.667 8.1073H147.074Z" fill="#191825" fill-opacity="0.5"/>
<path d="M155.68 8.10732H152.419V25.0874H155.866V8.10732H155.68ZM152.09 3.13221C152.09 4.26195 153.009 5.17846 154.138 5.17846C155.271 5.17846 156.185 4.26195 156.185 3.13221C156.185 2.00388 155.269 1.08314 154.138 1.08314C153.011 1.08031 152.09 2.00388 152.09 3.13221Z" fill="#191825" fill-opacity="0.5"/>
<path d="M159.902 12.4611C159.902 14.849 161.543 16.1073 164.574 17.5901C166.485 18.5292 167.483 19.0828 167.483 20.406C167.483 21.7631 166.257 22.64 164.354 22.64C163.008 22.64 161.514 22.2616 160.034 21.5343L159.782 21.41L159.671 24.4039L159.785 24.4462C161.2 25.0097 162.687 25.2851 164.224 25.2851C168.435 25.2851 171.153 23.2784 171.153 20.173C171.153 17.5844 169.432 16.2697 166.448 14.8773C164.263 13.8506 163.347 13.2533 163.347 12.1645C163.347 11.1336 164.366 10.4614 165.942 10.4614C167.366 10.4614 168.755 10.7777 170.07 11.4047L170.319 11.5191L170.468 8.59027L170.331 8.55072C168.905 8.12707 167.497 7.91383 166.142 7.91383C162.411 7.90818 159.902 9.73837 159.902 12.4611Z" fill="#191825" fill-opacity="0.5"/>
<path d="M181.897 7.70911C176.722 7.70911 173.51 11.1167 173.51 16.596C173.51 22.078 176.725 25.48 181.897 25.48C187.095 25.48 190.322 22.0766 190.322 16.596C190.322 11.1181 187.092 7.70911 181.897 7.70911ZM181.926 22.6712C179.067 22.6712 177.146 20.2168 177.146 16.5635C177.146 12.8904 179.067 10.4276 181.926 10.4276C184.833 10.4276 186.709 12.8381 186.709 16.5635C186.709 20.2747 184.835 22.6712 181.926 22.6712Z" fill="#191825" fill-opacity="0.5"/>
<path d="M196.673 10.8597C196.673 9.90363 196.673 8.10875 196.673 8.10875H193.523V25.0874H196.966V16.5649C196.966 12.9921 198.459 11.0235 201.183 11.0235C201.574 11.0235 201.954 11.0828 202.412 11.2141L202.645 11.2777L202.752 7.92657L201.276 7.8136C199.289 7.81219 197.681 8.88968 196.673 10.8597Z" fill="#191825" fill-opacity="0.5"/>
<path d="M210.966 7.35604C211.53 7.92797 211.827 8.68773 211.827 9.50538C211.827 10.3597 211.508 11.1252 210.92 11.6886C210.308 12.2704 209.548 12.5825 208.754 12.5825C207.925 12.5825 207.163 12.2563 206.569 11.6434C206.003 11.056 205.683 10.3047 205.683 9.50256C205.683 8.6849 206.009 7.89267 206.619 7.29108C207.191 6.73045 207.927 6.42542 208.754 6.42542C209.603 6.42683 210.375 6.7488 210.966 7.35604ZM207 7.69355C206.503 8.19064 206.238 8.83036 206.238 9.50538C206.238 10.1635 206.483 10.7693 206.958 11.2522C207.434 11.7493 208.065 12.0176 208.741 12.0176C209.399 12.0176 210.032 11.7649 210.521 11.2904C211.001 10.8286 211.265 10.1959 211.265 9.50397C211.265 8.82753 211.019 8.21323 210.553 7.74298C210.065 7.24589 209.445 6.98464 208.754 6.98464C208.073 6.98464 207.476 7.22753 207 7.69355ZM208.811 7.75145C209.774 7.75145 210.268 8.10026 210.268 8.7315C210.268 9.16646 210.01 9.50397 209.551 9.64236L210.307 11.1237H209.282L208.651 9.7864H208.384V11.1237H207.455V7.75004L208.811 7.75145ZM208.377 9.23707H208.7C209.114 9.23707 209.313 9.09161 209.313 8.80211C209.313 8.47166 209.104 8.33609 208.651 8.33609H208.377V9.23707Z" fill="#191825" fill-opacity="0.5"/>
</svg>
