<svg width="32" height="32" viewBox="0 0 32 32" fill="none" xmlns="http://www.w3.org/2000/svg">
<path d="M16 32C24.8366 32 32 24.8366 32 16C32 7.16344 24.8366 0 16 0C7.16344 0 0 7.16344 0 16C0 24.8366 7.16344 32 16 32Z" fill="#5D50C6"/>
<path d="M25.8003 11.4988C25.1146 11.8028 24.377 12.0084 23.6035 12.1003C24.3933 11.6271 24.9994 10.8784 25.2855 9.98483C24.5465 10.4232 23.7276 10.7412 22.8568 10.9126C22.1592 10.1697 21.1652 9.70532 20.0646 9.70532C17.9529 9.70532 16.2401 11.418 16.2401 13.5298C16.2401 13.8295 16.2741 14.1213 16.3397 14.4014C13.1612 14.242 10.343 12.7195 8.45662 10.405C8.12749 10.9697 7.93867 11.6271 7.93867 12.3279C7.93867 13.6544 8.61435 14.8255 9.63998 15.5112C9.01336 15.4915 8.42325 15.3195 7.90787 15.0323C7.90758 15.0485 7.90758 15.0648 7.90758 15.0808C7.90758 16.9338 9.22642 18.4794 10.9756 18.8305C10.6551 18.9183 10.3165 18.9648 9.96826 18.9648C9.72127 18.9648 9.48197 18.9412 9.24867 18.8967C9.73524 20.4157 11.1473 21.5215 12.8213 21.5526C11.5121 22.5785 9.8633 23.1897 8.07101 23.1897C7.76298 23.1897 7.4578 23.1718 7.15918 23.1361C8.85079 24.2216 10.8616 24.8545 13.0212 24.8545C20.0558 24.8545 23.9027 19.027 23.9027 13.9727C23.9027 13.807 23.899 13.6419 23.8916 13.4781C24.6394 12.9391 25.2877 12.2657 25.8003 11.4988Z" fill="#F1F2F2"/>
</svg>
