<svg width="253" height="253" viewBox="0 0 253 253" fill="none" xmlns="http://www.w3.org/2000/svg">
<path d="M2.18923 205.364L-0.0888672 207.645L8.64769 216.37L10.9258 214.088L2.18923 205.364Z" fill="#FACD49"/>
<path d="M-0.0947554 214.108L2.18652 216.386L10.9109 207.65L8.62961 205.372L-0.0947554 214.108Z" fill="#FACD49"/>
<path d="M2.21853 228.446L-0.0595703 230.727L8.67698 239.451L10.9551 237.17L2.21853 228.446Z" fill="#FACD49"/>
<path d="M-0.0771773 237.177L2.2041 239.455L10.9285 230.719L8.64718 228.441L-0.0771773 237.177Z" fill="#FACD49"/>
<path d="M2.23024 249.905L-0.0478516 252.186L8.6887 260.91L10.9668 258.629L2.23024 249.905Z" fill="#FACD49"/>
<path d="M-0.0517867 258.672L2.22949 260.95L10.9539 252.213L8.67257 249.935L-0.0517867 258.672Z" fill="#FACD49"/>
<path d="M2.157 137.011L-0.121094 139.292L8.61545 148.017L10.8936 145.735L2.157 137.011Z" fill="#FACD49"/>
<path d="M-0.143584 145.728L2.1377 148.006L10.8621 139.27L8.58078 136.992L-0.143584 145.728Z" fill="#FACD49"/>
<path d="M2.157 160.08L-0.121094 162.362L8.61545 171.086L10.8936 168.805L2.157 160.08Z" fill="#FACD49"/>
<path d="M-0.120146 168.827L2.16113 171.105L10.8855 162.369L8.60421 160.091L-0.120146 168.827Z" fill="#FACD49"/>
<path d="M2.17946 181.544L-0.0986328 183.826L8.63792 192.55L10.916 190.269L2.17946 181.544Z" fill="#FACD49"/>
<path d="M-0.108427 190.291L2.17285 192.569L10.8972 183.832L8.61593 181.554L-0.108427 190.291Z" fill="#FACD49"/>
<path d="M2.1072 68.6151L-0.170898 70.8964L8.56565 79.6207L10.8437 77.3394L2.1072 68.6151Z" fill="#FACD49"/>
<path d="M-0.181669 77.3651L2.09961 79.6432L10.824 70.9066L8.54268 68.6285L-0.181669 77.3651Z" fill="#FACD49"/>
<path d="M2.1072 91.7268L-0.170898 94.0081L8.56565 102.732L10.8437 100.451L2.1072 91.7268Z" fill="#FACD49"/>
<path d="M-0.151396 100.447L2.12988 102.725L10.8542 93.9881L8.57296 91.71L-0.151396 100.447Z" fill="#FACD49"/>
<path d="M2.13063 113.191L-0.147461 115.473L8.58908 124.197L10.8672 121.916L2.13063 113.191Z" fill="#FACD49"/>
<path d="M-0.138701 121.91L2.14258 124.188L10.8669 115.452L8.58565 113.174L-0.138701 121.91Z" fill="#FACD49"/>
<path d="M2.04666 0.266934L-0.231445 2.54822L8.5051 11.2726L10.7832 8.99129L2.04666 0.266934Z" fill="#FACD49"/>
<path d="M-0.223666 8.99656L2.05762 11.2747L10.782 2.53811L8.50069 0.260011L-0.223666 8.99656Z" fill="#FACD49"/>
<path d="M2.0779 23.3305L-0.200195 25.6118L8.53635 34.3362L10.8144 32.0549L2.0779 23.3305Z" fill="#FACD49"/>
<path d="M-0.205107 32.0654L2.07617 34.3435L10.8005 25.607L8.51925 23.3289L-0.205107 32.0654Z" fill="#FACD49"/>
<path d="M2.08278 44.7951L-0.195312 47.0764L8.54123 55.8008L10.8193 53.5195L2.08278 44.7951Z" fill="#FACD49"/>
<path d="M-0.192412 53.5472L2.08887 55.8253L10.8132 47.0888L8.53195 44.8107L-0.192412 53.5472Z" fill="#FACD49"/>
<path d="M26.4627 205.363L24.1846 207.644L32.9211 216.368L35.1992 214.087L26.4627 205.363Z" fill="#FACD49"/>
<path d="M24.1709 214.085L26.4521 216.363L35.1765 207.627L32.8952 205.349L24.1709 214.085Z" fill="#FACD49"/>
<path d="M49.4217 205.339L47.1436 207.62L55.8801 216.344L58.1582 214.063L49.4217 205.339Z" fill="#FACD49"/>
<path d="M47.1406 214.066L49.4219 216.344L58.1462 207.608L55.8649 205.33L47.1406 214.066Z" fill="#FACD49"/>
<path d="M72.3494 205.32L70.0713 207.601L78.8078 216.326L81.0859 214.045L72.3494 205.32Z" fill="#FACD49"/>
<path d="M70.0967 214.06L72.3779 216.338L81.1023 207.602L78.821 205.324L70.0967 214.06Z" fill="#FACD49"/>
<path d="M95.3074 205.325L93.0293 207.606L101.766 216.33L104.044 214.049L95.3074 205.325Z" fill="#FACD49"/>
<path d="M93.0049 214.041L95.2861 216.319L104.011 207.583L101.729 205.305L93.0049 214.041Z" fill="#FACD49"/>
<path d="M118.237 205.288L115.959 207.569L124.696 216.294L126.974 214.013L118.237 205.288Z" fill="#FACD49"/>
<path d="M115.963 214.035L118.244 216.313L126.968 207.576L124.687 205.298L115.963 214.035Z" fill="#FACD49"/>
<path d="M26.4939 228.409L24.2158 230.69L32.9524 239.414L35.2305 237.133L26.4939 228.409Z" fill="#FACD49"/>
<path d="M24.1894 237.172L26.4707 239.45L35.1951 230.713L32.9138 228.435L24.1894 237.172Z" fill="#FACD49"/>
<path d="M49.4207 228.408L47.1426 230.689L55.8791 239.413L58.1572 237.132L49.4207 228.408Z" fill="#FACD49"/>
<path d="M47.1269 237.166L49.4082 239.444L58.1326 230.707L55.8513 228.429L47.1269 237.166Z" fill="#FACD49"/>
<path d="M72.3806 228.419L70.1025 230.701L78.8391 239.425L81.1172 237.144L72.3806 228.419Z" fill="#FACD49"/>
<path d="M70.0976 237.146L72.3789 239.425L81.1033 230.688L78.822 228.41L70.0976 237.146Z" fill="#FACD49"/>
<path d="M95.3211 228.388L93.043 230.67L101.78 239.394L104.058 237.113L95.3211 228.388Z" fill="#FACD49"/>
<path d="M93.0234 237.11L95.3047 239.388L104.029 230.652L101.748 228.374L93.0234 237.11Z" fill="#FACD49"/>
<path d="M118.268 228.387L115.99 230.669L124.727 239.393L127.005 237.112L118.268 228.387Z" fill="#FACD49"/>
<path d="M115.963 237.104L118.244 239.382L126.968 230.645L124.687 228.367L115.963 237.104Z" fill="#FACD49"/>
<path d="M26.4988 249.891L24.2207 252.172L32.9573 260.897L35.2353 258.615L26.4988 249.891Z" fill="#FACD49"/>
<path d="M24.2197 258.636L26.501 260.914L35.2253 252.177L32.9441 249.899L24.2197 258.636Z" fill="#FACD49"/>
<path d="M49.4451 249.89L47.167 252.171L55.9035 260.896L58.1816 258.614L49.4451 249.89Z" fill="#FACD49"/>
<path d="M47.1406 258.63L49.4219 260.908L58.1462 252.171L55.865 249.893L47.1406 258.63Z" fill="#FACD49"/>
<path d="M72.3855 249.884L70.1074 252.165L78.844 260.89L81.1221 258.608L72.3855 249.884Z" fill="#FACD49"/>
<path d="M70.1093 258.611L72.3906 260.889L81.115 252.152L78.8337 249.874L70.1093 258.611Z" fill="#FACD49"/>
<path d="M95.3318 249.865L93.0537 252.147L101.79 260.871L104.068 258.59L95.3318 249.865Z" fill="#FACD49"/>
<path d="M93.0478 258.604L95.3291 260.883L104.053 252.146L101.772 249.868L93.0478 258.604Z" fill="#FACD49"/>
<path d="M118.273 249.852L115.995 252.133L124.732 260.858L127.01 258.576L118.273 249.852Z" fill="#FACD49"/>
<path d="M115.975 258.568L118.256 260.846L126.98 252.109L124.699 249.831L115.975 258.568Z" fill="#FACD49"/>
<path d="M26.4138 136.991L24.1357 139.272L32.8723 147.997L35.1504 145.716L26.4138 136.991Z" fill="#FACD49"/>
<path d="M24.1416 145.722L26.4229 148L35.1472 139.263L32.8659 136.985L24.1416 145.722Z" fill="#FACD49"/>
<path d="M49.3728 136.96L47.0947 139.241L55.8313 147.965L58.1094 145.684L49.3728 136.96Z" fill="#FACD49"/>
<path d="M47.0849 145.702L49.3662 147.981L58.0906 139.244L55.8093 136.966L47.0849 145.702Z" fill="#FACD49"/>
<path d="M72.3181 136.959L70.04 139.24L78.7766 147.965L81.0547 145.683L72.3181 136.959Z" fill="#FACD49"/>
<path d="M70.0234 145.696L72.3047 147.974L81.029 139.238L78.7478 136.96L70.0234 145.696Z" fill="#FACD49"/>
<path d="M95.2468 136.923L92.9688 139.204L101.705 147.928L103.983 145.647L95.2468 136.923Z" fill="#FACD49"/>
<path d="M92.9804 145.672L95.2617 147.95L103.986 139.214L101.705 136.936L92.9804 145.672Z" fill="#FACD49"/>
<path d="M118.193 136.922L115.915 139.203L124.652 147.927L126.93 145.646L118.193 136.922Z" fill="#FACD49"/>
<path d="M115.92 145.666L118.201 147.944L126.926 139.208L124.644 136.929L115.92 145.666Z" fill="#FACD49"/>
<path d="M26.4441 160.073L24.166 162.354L32.9026 171.078L35.1807 168.797L26.4441 160.073Z" fill="#FACD49"/>
<path d="M24.1582 168.791L26.4395 171.069L35.1638 162.332L32.8825 160.054L24.1582 168.791Z" fill="#FACD49"/>
<path d="M49.3855 160.041L47.1074 162.323L55.844 171.047L58.1221 168.766L49.3855 160.041Z" fill="#FACD49"/>
<path d="M47.1025 168.771L49.3838 171.05L58.1081 162.313L55.8269 160.035L47.1025 168.771Z" fill="#FACD49"/>
<path d="M72.3308 160.023L70.0527 162.304L78.7893 171.029L81.0674 168.747L72.3308 160.023Z" fill="#FACD49"/>
<path d="M70.041 168.765L72.3223 171.043L81.0466 162.307L78.7653 160.029L70.041 168.765Z" fill="#FACD49"/>
<path d="M95.2781 160.022L93 162.303L101.737 171.028L104.015 168.746L95.2781 160.022Z" fill="#FACD49"/>
<path d="M92.9814 168.759L95.2627 171.037L103.987 162.3L101.706 160.022L92.9814 168.759Z" fill="#FACD49"/>
<path d="M118.206 160.003L115.928 162.285L124.664 171.009L126.942 168.728L118.206 160.003Z" fill="#FACD49"/>
<path d="M115.937 168.752L118.219 171.03L126.943 162.294L124.662 160.016L115.937 168.752Z" fill="#FACD49"/>
<path d="M26.449 181.554L24.1709 183.836L32.9074 192.56L35.1855 190.279L26.449 181.554Z" fill="#FACD49"/>
<path d="M24.1709 190.254L26.4521 192.532L35.1765 183.796L32.8952 181.518L24.1709 190.254Z" fill="#FACD49"/>
<path d="M49.3953 181.518L47.1172 183.8L55.8537 192.524L58.1318 190.243L49.3953 181.518Z" fill="#FACD49"/>
<path d="M47.1269 190.248L49.4082 192.526L58.1326 183.79L55.8513 181.511L47.1269 190.248Z" fill="#FACD49"/>
<path d="M72.3543 181.505L70.0762 183.786L78.8127 192.51L81.0908 190.229L72.3543 181.505Z" fill="#FACD49"/>
<path d="M70.0537 190.229L72.335 192.507L81.0593 183.771L78.778 181.493L70.0537 190.229Z" fill="#FACD49"/>
<path d="M95.283 181.487L93.0049 183.768L101.741 192.492L104.02 190.211L95.283 181.487Z" fill="#FACD49"/>
<path d="M92.9931 190.223L95.2744 192.501L103.999 183.765L101.717 181.487L92.9931 190.223Z" fill="#FACD49"/>
<path d="M118.228 181.468L115.95 183.749L124.687 192.474L126.965 190.192L118.228 181.468Z" fill="#FACD49"/>
<path d="M115.949 190.217L118.23 192.495L126.955 183.758L124.674 181.48L115.949 190.217Z" fill="#FACD49"/>
<path d="M26.3826 68.6126L24.1045 70.8939L32.841 79.6183L35.1191 77.337L26.3826 68.6126Z" fill="#FACD49"/>
<path d="M24.1035 77.3406L26.3848 79.6187L35.1091 70.8821L32.8278 68.604L24.1035 77.3406Z" fill="#FACD49"/>
<path d="M49.3113 68.6119L47.0332 70.8932L55.7697 79.6175L58.0478 77.3363L49.3113 68.6119Z" fill="#FACD49"/>
<path d="M47.0244 77.3346L49.3057 79.6127L58.03 70.8761L55.7487 68.598L47.0244 77.3346Z" fill="#FACD49"/>
<path d="M72.2576 68.5931L69.9795 70.8744L78.716 79.5987L80.9941 77.3175L72.2576 68.5931Z" fill="#FACD49"/>
<path d="M69.9814 77.328L72.2627 79.6061L80.9871 70.8695L78.7058 68.5914L69.9814 77.328Z" fill="#FACD49"/>
<path d="M95.198 68.5621L92.9199 70.8434L101.656 79.5677L103.935 77.2865L95.198 68.5621Z" fill="#FACD49"/>
<path d="M92.9072 77.3096L95.1885 79.5876L103.913 70.8511L101.632 68.573L92.9072 77.3096Z" fill="#FACD49"/>
<path d="M118.157 68.556L115.879 70.8373L124.615 79.5616L126.894 77.2804L118.157 68.556Z" fill="#FACD49"/>
<path d="M115.858 77.2904L118.14 79.5685L126.864 70.8319L124.583 68.5538L115.858 77.2904Z" fill="#FACD49"/>
<path d="M26.3953 91.6943L24.1172 93.9756L32.8537 102.7L35.1318 100.419L26.3953 91.6943Z" fill="#FACD49"/>
<path d="M24.1035 100.427L26.3848 102.706L35.1091 93.969L32.8278 91.6909L24.1035 100.427Z" fill="#FACD49"/>
<path d="M49.3416 91.6758L47.0635 93.957L55.8 102.681L58.0781 100.4L49.3416 91.6758Z" fill="#FACD49"/>
<path d="M47.0605 100.421L49.3418 102.699L58.0662 93.9626L55.7849 91.6845L47.0605 100.421Z" fill="#FACD49"/>
<path d="M72.2693 91.6747L69.9912 93.9559L78.7278 102.68L81.0059 100.399L72.2693 91.6747Z" fill="#FACD49"/>
<path d="M69.9804 100.415L72.2617 102.693L80.9861 93.9562L78.7048 91.6781L69.9804 100.415Z" fill="#FACD49"/>
<path d="M95.2293 91.6257L92.9512 93.907L101.688 102.631L103.966 100.35L95.2293 91.6257Z" fill="#FACD49"/>
<path d="M92.9258 100.378L95.207 102.656L103.931 93.9193L101.65 91.6412L92.9258 100.378Z" fill="#FACD49"/>
<path d="M118.157 91.6074L115.879 93.8887L124.615 102.613L126.894 100.332L118.157 91.6074Z" fill="#FACD49"/>
<path d="M115.883 100.372L118.164 102.65L126.888 93.9132L124.607 91.6351L115.883 100.372Z" fill="#FACD49"/>
<path d="M26.406 113.171L24.1279 115.452L32.8645 124.176L35.1426 121.895L26.406 113.171Z" fill="#FACD49"/>
<path d="M24.1289 121.903L26.4102 124.182L35.1345 115.445L32.8532 113.167L24.1289 121.903Z" fill="#FACD49"/>
<path d="M49.3474 113.14L47.0693 115.421L55.8059 124.146L58.084 121.864L49.3474 113.14Z" fill="#FACD49"/>
<path d="M47.0547 121.885L49.3359 124.163L58.0603 115.426L55.779 113.148L47.0547 121.885Z" fill="#FACD49"/>
<path d="M72.2927 113.121L70.0146 115.403L78.7512 124.127L81.0293 121.846L72.2927 113.121Z" fill="#FACD49"/>
<path d="M69.9941 121.879L72.2754 124.157L80.9997 115.42L78.7185 113.142L69.9941 121.879Z" fill="#FACD49"/>
<path d="M95.2224 113.103L92.9443 115.384L101.681 124.109L103.959 121.827L95.2224 113.103Z" fill="#FACD49"/>
<path d="M92.9687 121.854L95.25 124.133L103.974 115.396L101.693 113.118L92.9687 121.854Z" fill="#FACD49"/>
<path d="M118.18 113.089L115.902 115.371L124.639 124.095L126.917 121.814L118.18 113.089Z" fill="#FACD49"/>
<path d="M115.895 121.836L118.176 124.114L126.9 115.377L124.619 113.099L115.895 121.836Z" fill="#FACD49"/>
<path d="M26.3211 0.247041L24.043 2.52832L32.7795 11.2527L35.0576 8.9714L26.3211 0.247041Z" fill="#FACD49"/>
<path d="M24.0429 8.99046L26.3242 11.2686L35.0486 2.53201L32.7673 0.253912L24.0429 8.99046Z" fill="#FACD49"/>
<path d="M49.2625 0.215669L46.9844 2.49695L55.7209 11.2213L57.999 8.94003L49.2625 0.215669Z" fill="#FACD49"/>
<path d="M46.9873 8.97117L49.2686 11.2493L57.9929 2.51272L55.7116 0.234625L46.9873 8.97117Z" fill="#FACD49"/>
<path d="M72.2215 0.209688L69.9434 2.49097L78.6799 11.2153L80.958 8.93405L72.2215 0.209688Z" fill="#FACD49"/>
<path d="M69.9384 8.95237L72.2197 11.2305L80.9441 2.49392L78.6628 0.215826L69.9384 8.95237Z" fill="#FACD49"/>
<path d="M95.1668 0.208956L92.8887 2.49023L101.625 11.2146L103.903 8.93331L95.1668 0.208956Z" fill="#FACD49"/>
<path d="M92.8955 8.92869L95.1768 11.2068L103.901 2.47024L101.62 0.192144L92.8955 8.92869Z" fill="#FACD49"/>
<path d="M118.095 0.190157L115.817 2.47144L124.554 11.1958L126.832 8.91451L118.095 0.190157Z" fill="#FACD49"/>
<path d="M115.834 8.92198L118.115 11.2001L126.84 2.46353L124.558 0.185431L115.834 8.92198Z" fill="#FACD49"/>
<path d="M26.3347 23.3106L24.0566 25.5919L32.7932 34.3163L35.0713 32.035L26.3347 23.3106Z" fill="#FACD49"/>
<path d="M24.0615 32.0588L26.3428 34.3369L35.0671 25.6004L32.7859 23.3223L24.0615 32.0588Z" fill="#FACD49"/>
<path d="M49.28 23.3098L47.002 25.5911L55.7385 34.3154L58.0166 32.0341L49.28 23.3098Z" fill="#FACD49"/>
<path d="M47.0175 32.0528L49.2988 34.3309L58.0232 25.5944L55.7419 23.3163L47.0175 32.0528Z" fill="#FACD49"/>
<path d="M72.2381 23.2788L69.96 25.5601L78.6965 34.2844L80.9746 32.0031L72.2381 23.2788Z" fill="#FACD49"/>
<path d="M69.9433 32.0339L72.2246 34.312L80.949 25.5755L78.6677 23.2974L69.9433 32.0339Z" fill="#FACD49"/>
<path d="M95.1804 23.2726L92.9023 25.5538L101.639 34.2782L103.917 31.9969L95.1804 23.2726Z" fill="#FACD49"/>
<path d="M92.8955 32.0148L95.1768 34.2928L103.901 25.5563L101.62 23.2782L92.8955 32.0148Z" fill="#FACD49"/>
<path d="M118.126 23.2718L115.848 25.5531L124.584 34.2775L126.862 31.9962L118.126 23.2718Z" fill="#FACD49"/>
<path d="M115.853 32.0088L118.134 34.2869L126.858 25.5503L124.577 23.2722L115.853 32.0088Z" fill="#FACD49"/>
<path d="M26.3572 44.7929L24.0791 47.0742L32.8156 55.7986L35.0937 53.5173L26.3572 44.7929Z" fill="#FACD49"/>
<path d="M24.0732 53.5231L26.3545 55.8011L35.0788 47.0646L32.7976 44.7865L24.0732 53.5231Z" fill="#FACD49"/>
<path d="M49.3035 44.7739L47.0254 47.0552L55.7619 55.7795L58.04 53.4983L49.3035 44.7739Z" fill="#FACD49"/>
<path d="M47.0302 53.5165L49.3115 55.7946L58.0359 47.058L55.7546 44.7799L47.0302 53.5165Z" fill="#FACD49"/>
<path d="M72.2322 44.7552L69.9541 47.0365L78.6906 55.7609L80.9687 53.4796L72.2322 44.7552Z" fill="#FACD49"/>
<path d="M69.9697 53.5099L72.251 55.788L80.9753 47.0514L78.6941 44.7733L69.9697 53.5099Z" fill="#FACD49"/>
<path d="M95.1902 44.7418L92.9121 47.0231L101.649 55.7474L103.927 53.4661L95.1902 44.7418Z" fill="#FACD49"/>
<path d="M92.8955 53.4909L95.1768 55.769L103.901 47.0325L101.62 44.7544L92.8955 53.4909Z" fill="#FACD49"/>
<path d="M118.131 44.7359L115.853 47.0172L124.589 55.7416L126.867 53.4603L118.131 44.7359Z" fill="#FACD49"/>
<path d="M115.864 53.4548L118.146 55.7329L126.87 46.9964L124.589 44.7183L115.864 53.4548Z" fill="#FACD49"/>
<path d="M138.907 205.279L136.629 207.561L145.365 216.285L147.644 214.004L138.907 205.279Z" fill="#FACD49"/>
<path d="M136.625 214.018L138.906 216.297L147.631 207.56L145.349 205.282L136.625 214.018Z" fill="#FACD49"/>
<path d="M161.853 205.261L159.575 207.542L168.312 216.266L170.59 213.985L161.853 205.261Z" fill="#FACD49"/>
<path d="M159.582 214.012L161.863 216.29L170.588 207.554L168.306 205.276L159.582 214.012Z" fill="#FACD49"/>
<path d="M184.825 205.26L182.547 207.541L191.283 216.265L193.562 213.984L184.825 205.26Z" fill="#FACD49"/>
<path d="M182.521 213.981L184.803 216.259L193.527 207.522L191.246 205.244L182.521 213.981Z" fill="#FACD49"/>
<path d="M207.752 205.241L205.474 207.523L214.21 216.247L216.488 213.966L207.752 205.241Z" fill="#FACD49"/>
<path d="M205.459 213.974L207.74 216.253L216.465 207.516L214.183 205.238L205.459 213.974Z" fill="#FACD49"/>
<path d="M230.699 205.205L228.421 207.486L237.157 216.211L239.436 213.929L230.699 205.205Z" fill="#FACD49"/>
<path d="M228.436 213.968L230.717 216.246L239.441 207.509L237.16 205.231L228.436 213.968Z" fill="#FACD49"/>
<path d="M138.937 228.361L136.659 230.642L145.396 239.367L147.674 237.085L138.937 228.361Z" fill="#FACD49"/>
<path d="M136.644 237.105L138.925 239.383L147.649 230.646L145.368 228.368L136.644 237.105Z" fill="#FACD49"/>
<path d="M161.865 228.342L159.587 230.624L168.323 239.348L170.602 237.067L161.865 228.342Z" fill="#FACD49"/>
<path d="M159.581 237.099L161.862 239.377L170.587 230.64L168.305 228.362L159.581 237.099Z" fill="#FACD49"/>
<path d="M184.825 228.311L182.547 230.592L191.283 239.317L193.562 237.035L184.825 228.311Z" fill="#FACD49"/>
<path d="M182.526 237.062L184.808 239.34L193.532 230.603L191.251 228.325L182.526 237.062Z" fill="#FACD49"/>
<path d="M207.782 228.305L205.504 230.586L214.24 239.311L216.519 237.029L207.782 228.305Z" fill="#FACD49"/>
<path d="M205.495 237.043L207.776 239.321L216.501 230.584L214.219 228.306L205.495 237.043Z" fill="#FACD49"/>
<path d="M230.711 228.304L228.433 230.586L237.169 239.31L239.447 237.029L230.711 228.304Z" fill="#FACD49"/>
<path d="M228.434 237.037L230.715 239.315L239.439 230.579L237.158 228.3L228.434 237.037Z" fill="#FACD49"/>
<path d="M138.942 249.843L136.664 252.124L145.401 260.849L147.679 258.567L138.942 249.843Z" fill="#FACD49"/>
<path d="M136.655 258.569L138.937 260.847L147.661 252.11L145.38 249.832L136.655 258.569Z" fill="#FACD49"/>
<path d="M161.888 249.807L159.61 252.088L168.347 260.812L170.625 258.531L161.888 249.807Z" fill="#FACD49"/>
<path d="M159.595 258.562L161.876 260.84L170.6 252.104L168.319 249.826L159.595 258.562Z" fill="#FACD49"/>
<path d="M184.835 249.77L182.557 252.052L191.293 260.776L193.571 258.495L184.835 249.77Z" fill="#FACD49"/>
<path d="M182.569 258.539L184.851 260.817L193.575 252.08L191.294 249.802L182.569 258.539Z" fill="#FACD49"/>
<path d="M207.775 249.757L205.497 252.038L214.234 260.763L216.512 258.482L207.775 249.757Z" fill="#FACD49"/>
<path d="M205.495 258.52L207.776 260.798L216.501 252.061L214.219 249.783L205.495 258.52Z" fill="#FACD49"/>
<path d="M230.734 249.769L228.456 252.05L237.193 260.775L239.471 258.493L230.734 249.769Z" fill="#FACD49"/>
<path d="M228.429 258.501L230.71 260.779L239.434 252.043L237.153 249.765L228.429 258.501Z" fill="#FACD49"/>
<path d="M138.876 136.883L136.598 139.165L145.334 147.889L147.612 145.608L138.876 136.883Z" fill="#FACD49"/>
<path d="M136.588 145.655L138.869 147.934L147.593 139.197L145.312 136.919L136.588 145.655Z" fill="#FACD49"/>
<path d="M161.817 136.895L159.539 139.176L168.276 147.901L170.554 145.619L161.817 136.895Z" fill="#FACD49"/>
<path d="M159.541 145.619L161.822 147.897L170.547 139.16L168.265 136.882L159.541 145.619Z" fill="#FACD49"/>
<path d="M184.763 136.876L182.485 139.158L191.222 147.882L193.5 145.601L184.763 136.876Z" fill="#FACD49"/>
<path d="M182.461 145.63L184.742 147.908L193.467 139.172L191.185 136.894L182.461 145.63Z" fill="#FACD49"/>
<path d="M207.691 136.858L205.413 139.139L214.15 147.864L216.428 145.582L207.691 136.858Z" fill="#FACD49"/>
<path d="M205.417 145.606L207.698 147.884L216.423 139.148L214.141 136.87L205.417 145.606Z" fill="#FACD49"/>
<path d="M230.65 136.844L228.372 139.126L237.109 147.85L239.387 145.569L230.65 136.844Z" fill="#FACD49"/>
<path d="M228.361 145.587L230.643 147.865L239.367 139.129L237.086 136.851L228.361 145.587Z" fill="#FACD49"/>
<path d="M138.876 159.978L136.598 162.259L145.334 170.983L147.612 168.702L138.876 159.978Z" fill="#FACD49"/>
<path d="M136.601 168.737L138.882 171.015L147.606 162.278L145.325 160L136.601 168.737Z" fill="#FACD49"/>
<path d="M161.834 159.964L159.556 162.245L168.292 170.97L170.57 168.688L161.834 159.964Z" fill="#FACD49"/>
<path d="M159.544 168.718L161.825 170.996L170.55 162.259L168.268 159.981L159.544 168.718Z" fill="#FACD49"/>
<path d="M184.774 159.958L182.496 162.239L191.233 170.964L193.511 168.682L184.774 159.958Z" fill="#FACD49"/>
<path d="M182.495 168.699L184.776 170.977L193.501 162.24L191.219 159.962L182.495 168.699Z" fill="#FACD49"/>
<path d="M207.72 159.94L205.442 162.221L214.179 170.945L216.457 168.664L207.72 159.94Z" fill="#FACD49"/>
<path d="M205.435 168.693L207.716 170.971L216.44 162.235L214.159 159.956L205.435 168.693Z" fill="#FACD49"/>
<path d="M230.664 159.908L228.386 162.19L237.122 170.914L239.4 168.633L230.664 159.908Z" fill="#FACD49"/>
<path d="M228.38 168.656L230.661 170.934L239.385 162.198L237.104 159.92L228.38 168.656Z" fill="#FACD49"/>
<path d="M138.899 181.46L136.621 183.741L145.358 192.465L147.636 190.184L138.899 181.46Z" fill="#FACD49"/>
<path d="M136.596 190.201L138.877 192.479L147.601 183.742L145.32 181.464L136.596 190.201Z" fill="#FACD49"/>
<path d="M161.84 181.429L159.562 183.71L168.298 192.434L170.576 190.153L161.84 181.429Z" fill="#FACD49"/>
<path d="M159.539 190.182L161.82 192.46L170.545 183.724L168.263 181.445L159.539 190.182Z" fill="#FACD49"/>
<path d="M184.8 181.423L182.521 183.704L191.258 192.428L193.536 190.147L184.8 181.423Z" fill="#FACD49"/>
<path d="M182.509 190.163L184.79 192.441L193.514 183.705L191.233 181.427L182.509 190.163Z" fill="#FACD49"/>
<path d="M207.726 181.404L205.448 183.685L214.185 192.41L216.463 190.128L207.726 181.404Z" fill="#FACD49"/>
<path d="M205.447 190.157L207.729 192.435L216.453 183.699L214.172 181.42L205.447 190.157Z" fill="#FACD49"/>
<path d="M230.674 181.385L228.396 183.667L237.132 192.391L239.41 190.11L230.674 181.385Z" fill="#FACD49"/>
<path d="M228.404 190.133L230.686 192.411L239.41 183.674L237.129 181.396L228.404 190.133Z" fill="#FACD49"/>
<path d="M138.828 68.548L136.55 70.8292L145.286 79.5536L147.564 77.2723L138.828 68.548Z" fill="#FACD49"/>
<path d="M136.541 77.2745L138.822 79.5526L147.547 70.8161L145.265 68.538L136.541 77.2745Z" fill="#FACD49"/>
<path d="M161.756 68.5116L159.478 70.7928L168.214 79.5172L170.492 77.2359L161.756 68.5116Z" fill="#FACD49"/>
<path d="M159.479 77.2685L161.761 79.5466L170.485 70.8101L168.204 68.532L159.479 77.2685Z" fill="#FACD49"/>
<path d="M184.715 68.4983L182.437 70.7795L191.173 79.5039L193.451 77.2226L184.715 68.4983Z" fill="#FACD49"/>
<path d="M182.441 77.2495L184.723 79.5276L193.447 70.791L191.166 68.513L182.441 77.2495Z" fill="#FACD49"/>
<path d="M207.66 68.4796L205.382 70.7609L214.118 79.4852L216.396 77.204L207.66 68.4796Z" fill="#FACD49"/>
<path d="M205.38 77.243L207.661 79.5211L216.385 70.7846L214.104 68.5065L205.38 77.243Z" fill="#FACD49"/>
<path d="M230.606 68.4788L228.328 70.7601L237.065 79.4845L239.343 77.2032L230.606 68.4788Z" fill="#FACD49"/>
<path d="M228.301 77.237L230.582 79.5151L239.306 70.7786L237.025 68.5005L228.301 77.237Z" fill="#FACD49"/>
<path d="M138.841 91.6118L136.562 93.8931L145.299 102.617L147.577 100.336L138.841 91.6118Z" fill="#FACD49"/>
<path d="M136.559 100.361L138.84 102.639L147.564 93.9029L145.283 91.6248L136.559 100.361Z" fill="#FACD49"/>
<path d="M161.786 91.5931L159.508 93.8744L168.244 102.599L170.522 100.317L161.786 91.5931Z" fill="#FACD49"/>
<path d="M159.515 100.337L161.796 102.615L170.52 93.8786L168.239 91.6005L159.515 100.337Z" fill="#FACD49"/>
<path d="M184.732 91.5924L182.454 93.8737L191.191 102.598L193.469 100.317L184.732 91.5924Z" fill="#FACD49"/>
<path d="M182.437 100.331L184.718 102.609L193.442 93.8727L191.161 91.5946L182.437 100.331Z" fill="#FACD49"/>
<path d="M207.673 91.5611L205.395 93.8424L214.131 102.567L216.409 100.285L207.673 91.5611Z" fill="#FACD49"/>
<path d="M205.38 100.312L207.661 102.59L216.385 93.8535L214.104 91.5754L205.38 100.312Z" fill="#FACD49"/>
<path d="M230.62 91.5424L228.342 93.8237L237.078 102.548L239.356 100.267L230.62 91.5424Z" fill="#FACD49"/>
<path d="M228.337 100.305L230.618 102.583L239.343 93.847L237.061 91.5688L228.337 100.305Z" fill="#FACD49"/>
<path d="M138.863 113.076L136.585 115.358L145.322 124.082L147.6 121.801L138.863 113.076Z" fill="#FACD49"/>
<path d="M136.589 121.808L138.87 124.086L147.594 115.349L145.313 113.071L136.589 121.808Z" fill="#FACD49"/>
<path d="M161.81 113.075L159.532 115.357L168.269 124.081L170.547 121.8L161.81 113.075Z" fill="#FACD49"/>
<path d="M159.528 121.801L161.81 124.079L170.534 115.343L168.253 113.065L159.528 121.801Z" fill="#FACD49"/>
<path d="M184.737 113.074L182.459 115.356L191.196 124.08L193.474 121.799L184.737 113.074Z" fill="#FACD49"/>
<path d="M182.448 121.813L184.729 124.091L193.454 115.354L191.173 113.076L182.448 121.813Z" fill="#FACD49"/>
<path d="M207.696 113.026L205.418 115.307L214.155 124.031L216.433 121.75L207.696 113.026Z" fill="#FACD49"/>
<path d="M205.393 121.776L207.674 124.054L216.398 115.318L214.117 113.04L205.393 121.776Z" fill="#FACD49"/>
<path d="M230.626 113.025L228.348 115.306L237.084 124.03L239.362 121.749L230.626 113.025Z" fill="#FACD49"/>
<path d="M228.351 121.77L230.632 124.048L239.356 115.311L237.075 113.033L228.351 121.77Z" fill="#FACD49"/>
<path d="M138.784 0.181866L136.506 2.46313L145.242 11.1875L147.52 8.90622L138.784 0.181866Z" fill="#FACD49"/>
<path d="M136.498 8.92357L138.779 11.2017L147.504 2.46511L145.222 0.187027L136.498 8.92357Z" fill="#FACD49"/>
<path d="M161.725 0.150841L159.447 2.43213L168.184 11.1565L170.462 8.8752L161.725 0.150841Z" fill="#FACD49"/>
<path d="M159.442 8.88742L161.724 11.1655L170.448 2.42898L168.167 0.150875L159.442 8.88742Z" fill="#FACD49"/>
<path d="M184.653 0.132183L182.375 2.41345L191.112 11.1378L193.39 8.85654L184.653 0.132183Z" fill="#FACD49"/>
<path d="M182.381 8.88085L184.662 11.1589L193.386 2.42239L191.105 0.144302L182.381 8.88085Z" fill="#FACD49"/>
<path d="M207.599 0.113628L205.321 2.3949L214.058 11.1193L216.336 8.83798L207.599 0.113628Z" fill="#FACD49"/>
<path d="M205.338 8.87475L207.619 11.1528L216.343 2.41629L214.062 0.138199L205.338 8.87475Z" fill="#FACD49"/>
<path d="M230.571 0.112755L228.293 2.39404L237.03 11.1184L239.308 8.83711L230.571 0.112755Z" fill="#FACD49"/>
<path d="M228.295 8.82553L230.576 11.1036L239.301 2.36709L237.019 0.0889859L228.295 8.82553Z" fill="#FACD49"/>
<path d="M138.797 23.2457L136.519 25.527L145.255 34.2513L147.533 31.97L138.797 23.2457Z" fill="#FACD49"/>
<path d="M136.516 31.9926L138.797 34.2708L147.521 25.5342L145.24 23.2561L136.516 31.9926Z" fill="#FACD49"/>
<path d="M161.756 23.2324L159.478 25.5137L168.214 34.238L170.492 31.9568L161.756 23.2324Z" fill="#FACD49"/>
<path d="M159.442 31.9737L161.724 34.2518L170.448 25.5153L168.167 23.2372L159.442 31.9737Z" fill="#FACD49"/>
<path d="M184.666 23.196L182.388 25.4773L191.124 34.2017L193.402 31.9204L184.666 23.196Z" fill="#FACD49"/>
<path d="M182.399 31.9676L184.681 34.2457L193.405 25.5092L191.124 23.2311L182.399 31.9676Z" fill="#FACD49"/>
<path d="M207.612 23.1952L205.334 25.4764L214.071 34.2008L216.349 31.9195L207.612 23.1952Z" fill="#FACD49"/>
<path d="M205.356 31.9435L207.638 34.2216L216.362 25.485L214.081 23.2069L205.356 31.9435Z" fill="#FACD49"/>
<path d="M230.557 23.1943L228.279 25.4756L237.016 34.1999L239.294 31.9187L230.557 23.1943Z" fill="#FACD49"/>
<path d="M228.276 31.955L230.558 34.2332L239.282 25.4966L237.001 23.2185L228.276 31.955Z" fill="#FACD49"/>
<path d="M138.803 44.7098L136.524 46.9911L145.261 55.7154L147.539 53.4342L138.803 44.7098Z" fill="#FACD49"/>
<path d="M136.529 53.4563L138.811 55.7344L147.535 46.9978L145.254 44.7197L136.529 53.4563Z" fill="#FACD49"/>
<path d="M161.749 44.709L159.471 46.9902L168.207 55.7146L170.485 53.4333L161.749 44.709Z" fill="#FACD49"/>
<path d="M159.468 53.4498L161.749 55.7279L170.473 46.9914L168.192 44.7133L159.468 53.4498Z" fill="#FACD49"/>
<path d="M184.689 44.6601L182.411 46.9414L191.148 55.6658L193.426 53.3845L184.689 44.6601Z" fill="#FACD49"/>
<path d="M182.43 53.4135L184.711 55.6917L193.435 46.9551L191.154 44.677L182.43 53.4135Z" fill="#FACD49"/>
<path d="M207.636 44.6598L205.358 46.941L214.095 55.6654L216.373 53.3841L207.636 44.6598Z" fill="#FACD49"/>
<path d="M205.351 53.4076L207.632 55.6857L216.356 46.9491L214.075 44.671L205.351 53.4076Z" fill="#FACD49"/>
<path d="M230.582 44.6588L228.304 46.9401L237.04 55.6644L239.318 53.3831L230.582 44.6588Z" fill="#FACD49"/>
<path d="M228.289 53.4192L230.57 55.6973L239.295 46.9607L237.013 44.6826L228.289 53.4192Z" fill="#FACD49"/>
<path d="M254.985 205.209L252.707 207.49L261.444 216.214L263.722 213.933L254.985 205.209Z" fill="#FACD49"/>
<path d="M252.687 213.932L254.969 216.21L263.693 207.474L261.412 205.196L252.687 213.932Z" fill="#FACD49"/>
<path d="M254.986 228.285L252.708 230.566L261.445 239.291L263.723 237.009L254.986 228.285Z" fill="#FACD49"/>
<path d="M252.7 237.031L254.981 239.309L263.706 230.573L261.424 228.295L252.7 237.031Z" fill="#FACD49"/>
<path d="M254.991 249.749L252.713 252.031L261.449 260.755L263.728 258.474L254.991 249.749Z" fill="#FACD49"/>
<path d="M252.713 258.495L254.994 260.773L263.718 252.037L261.437 249.759L252.713 258.495Z" fill="#FACD49"/>
<path d="M254.924 136.825L252.646 139.106L261.382 147.83L263.66 145.549L254.924 136.825Z" fill="#FACD49"/>
<path d="M252.627 145.581L254.908 147.859L263.633 139.123L261.351 136.845L252.627 145.581Z" fill="#FACD49"/>
<path d="M254.936 159.906L252.658 162.188L261.395 170.912L263.673 168.631L254.936 159.906Z" fill="#FACD49"/>
<path d="M252.663 168.65L254.944 170.928L263.669 162.192L261.387 159.913L252.663 168.65Z" fill="#FACD49"/>
<path d="M254.961 181.371L252.683 183.652L261.419 192.376L263.697 190.095L254.961 181.371Z" fill="#FACD49"/>
<path d="M252.676 190.114L254.957 192.392L263.681 183.656L261.4 181.378L252.676 190.114Z" fill="#FACD49"/>
<path d="M254.863 68.4587L252.585 70.74L261.322 79.4643L263.6 77.1831L254.863 68.4587Z" fill="#FACD49"/>
<path d="M252.585 77.2126L254.866 79.4907L263.591 70.7542L261.309 68.4761L252.585 77.2126Z" fill="#FACD49"/>
<path d="M254.876 91.5403L252.598 93.8215L261.334 102.546L263.612 100.265L254.876 91.5403Z" fill="#FACD49"/>
<path d="M252.585 100.299L254.866 102.577L263.591 93.8408L261.309 91.5628L252.585 100.299Z" fill="#FACD49"/>
<path d="M254.899 113.005L252.621 115.286L261.358 124.01L263.636 121.729L254.899 113.005Z" fill="#FACD49"/>
<path d="M252.598 121.764L254.879 124.042L263.603 115.305L261.322 113.027L252.598 121.764Z" fill="#FACD49"/>
<path d="M254.827 0.0929983L252.549 2.37427L261.285 11.0986L263.563 8.81736L254.827 0.0929983Z" fill="#FACD49"/>
<path d="M252.542 8.83739L254.823 11.1155L263.548 2.37893L261.266 0.100846L252.542 8.83739Z" fill="#FACD49"/>
<path d="M254.857 23.1745L252.579 25.4558L261.316 34.1802L263.594 31.8989L254.857 23.1745Z" fill="#FACD49"/>
<path d="M252.56 31.9059L254.841 34.184L263.565 25.4474L261.284 23.1693L252.56 31.9059Z" fill="#FACD49"/>
<path d="M254.863 44.639L252.585 46.9203L261.322 55.6446L263.6 53.3634L254.863 44.639Z" fill="#FACD49"/>
<path d="M252.572 53.37L254.854 55.6481L263.578 46.9115L261.297 44.6334L252.572 53.37Z" fill="#FACD49"/>
</svg>
